<?xml version="1.0" encoding="UTF-8" standalone="no"?><!DOCTYPE svg PUBLIC "-//W3C//DTD SVG 1.1//EN" "http://www.w3.org/Graphics/SVG/1.1/DTD/svg11.dtd"><svg width="100%" height="100%" viewBox="0 0 1233 800" version="1.1" xmlns="http://www.w3.org/2000/svg" xmlns:xlink="http://www.w3.org/1999/xlink" xml:space="preserve" xmlns:serif="http://www.serif.com/" style="fill-rule:evenodd;clip-rule:evenodd;stroke-linecap:round;stroke-linejoin:round;stroke-miterlimit:1.5;"><g><path d="M629,400l111.3,-268.7m-111.3,268.7l-111.3,-268.7m111.3,268.7l268.7,-111.587m-268.7,111.587l268.7,110.86m-268.7,-110.86l-111.3,268.7m111.3,-268.7l111.3,268.7m-111.3,-268.7l-268.7,111.587m268.7,-111.587l-268.7,-110.86" style="fill:none;stroke:#000;stroke-width:1px;"/><circle cx="629" cy="400" r="293.237" style="fill:none;stroke:#000;stroke-width:3px;"/></g><path d="M636.28,596.385l0.497,0.31l0.34,0.475l0.133,0.57l-0.095,0.578l-0.308,0.497l-0.476,0.34l-0.57,0.134l-0.38,0.012l-0.64,0.02l-0.64,0.018l-0.642,0.015l-0.64,0.013l-0.642,0.01l-0.643,0.01l-0.643,0.007l-0.643,0.005l-0.528,0l-0.575,-0.11l-0.488,-0.323l-0.327,-0.485l-0.117,-0.574l0.11,-0.574l0.323,-0.488l0.485,-0.328l0.573,-0.117l0.524,0l0.634,-0.005l0.633,-0.007l0.633,-0.01l0.633,-0.01l0.632,-0.013l0.632,-0.015l0.63,-0.017l0.63,-0.02l0.374,-0.013l0.578,0.095l0.003,0Zm-21.136,-0.464l0.624,0.042l0.625,0.04l0.626,0.04l1.252,0.07l0.627,0.033l1.256,0.06l0.63,0.027l0.032,0.001l0.57,0.137l0.474,0.344l0.305,0.5l0.092,0.578l-0.137,0.57l-0.344,0.474l-0.5,0.305l-0.58,0.092l-0.037,-0.002l-0.638,-0.027l-0.638,-0.03l-1.273,-0.065l-0.636,-0.035l-0.636,-0.038l-0.635,-0.04l-0.634,-0.04l-0.9,-0.063l-0.565,-0.155l-0.462,-0.36l-0.3,-0.51l-0.073,-0.58l0.155,-0.565l0.36,-0.462l0.51,-0.3l0.58,-0.073l0.272,0.02l-0.002,0.012Zm35.986,-0.638l0.52,0.27l0.376,0.448l0.176,0.56l-0.05,0.583l-0.27,0.52l-0.45,0.376l-0.558,0.176l-0.245,0.027l-0.627,0.067l-0.628,0.065l-0.628,0.063l-0.63,0.06l-0.63,0.06l-0.63,0.057l-0.63,0.056l-0.632,0.053l-0.63,0.05l-0.1,0.008l-0.58,-0.07l-0.51,-0.286l-0.362,-0.46l-0.158,-0.564l0.07,-0.58l0.287,-0.5l0.46,-0.362l0.563,-0.16l0.105,-0.008l0.623,-0.05l0.62,-0.052l0.62,-0.055l0.62,-0.056l0.62,-0.058l0.62,-0.06l0.62,-0.062l0.618,-0.064l0.618,-0.066l0.24,-0.026l0.583,0.05l-0.011,-0.01Zm-50.805,-0.962l0.61,0.088l0.61,0.087l0.612,0.085l0.612,0.083l0.614,0.08l0.613,0.08l0.615,0.077l1.23,0.15l0.136,0.015l0.557,0.18l0.446,0.38l0.267,0.52l0.047,0.583l-0.18,0.557l-0.38,0.446l-0.52,0.267l-0.583,0.047l-0.14,-0.016l-0.625,-0.075l-0.625,-0.076l-0.623,-0.078l-1.246,-0.163l-0.622,-0.084l-0.62,-0.086l-0.62,-0.088l-0.872,-0.127l-0.55,-0.197l-0.434,-0.393l-0.25,-0.53l-0.03,-0.585l0.197,-0.55l0.393,-0.434l0.53,-0.25l0.585,-0.03l0.247,0.037l-0.001,0Zm65.53,-1.26l0.538,0.23l0.4,0.42l0.217,0.543l-0.007,0.585l-0.23,0.54l-0.418,0.41l-0.544,0.217l-0.318,0.06l-0.613,0.112l-0.613,0.11l-0.614,0.11l-0.614,0.107l-0.615,0.105l-0.616,0.103l-0.617,0.1l-0.617,0.1l-0.617,0.097l-0.106,0.016l-0.584,-0.025l-0.53,-0.247l-0.396,-0.43l-0.2,-0.55l0.025,-0.585l0.247,-0.53l0.43,-0.396l0.55,-0.2l0.71,-0.112l0.608,-0.098l0.607,-0.1l0.606,-0.1l0.606,-0.104l0.605,-0.105l0.605,-0.107l0.604,-0.11l0.603,-0.11l0.314,-0.06l0.585,0.007l0.009,-0.003Zm-80.407,-1.512l0.407,0.092l0.596,0.132l0.596,0.13l0.597,0.13l0.597,0.128l0.598,0.125l0.6,0.124l1.8,0.36l0.035,0.006l0.542,0.222l0.416,0.41l0.226,0.54l0.004,0.585l-0.222,0.542l-0.41,0.416l-0.54,0.227l-0.585,0.003l-0.04,-0.008l-0.61,-0.12l-0.6,-0.122l-0.608,-0.123l-0.608,-0.126l-0.608,-0.127l-0.606,-0.13l-1.21,-0.264l-0.605,-0.135l-0.412,-0.093l-0.534,-0.238l-0.403,-0.425l-0.2,-0.546l0.015,-0.585l0.238,-0.535l0.424,-0.403l0.547,-0.2l0.585,0.016l-0.022,-0.008Zm95.475,-1.634l0.44,0.386l0.257,0.526l0.038,0.584l-0.2,0.554l-0.386,0.44l-0.526,0.258l-0.554,0.147l-0.597,0.157l-0.596,0.154l-0.598,0.153l-0.598,0.15l-0.6,0.15l-0.6,0.147l-0.6,0.146l-0.6,0.144l-0.517,0.122l-0.585,0.02l-0.548,-0.204l-0.428,-0.4l-0.243,-0.533l-0.02,-0.585l0.205,-0.548l0.4,-0.428l0.532,-0.243l0.512,-0.12l0.592,-0.142l0.59,-0.143l0.59,-0.145l0.6,-0.147l0.59,-0.15l0.588,-0.15l0.588,-0.152l0.587,-0.154l0.55,-0.146l0.584,-0.038l0.554,0.2l-0.001,-0.01Zm-109.85,-2.21l0.126,0.04l1.156,0.352l0.58,0.173l0.58,0.172l1.162,0.338l0.582,0.166l0.582,0.165l0.584,0.163l0.364,0.1l0.523,0.263l0.382,0.443l0.184,0.555l-0.042,0.584l-0.263,0.523l-0.443,0.383l-0.556,0.184l-0.583,-0.043l-0.37,-0.102l-0.592,-0.165l-0.592,-0.167l-0.59,-0.17l-0.6,-0.17l-0.59,-0.172l-0.59,-0.175l-0.588,-0.176l-0.587,-0.178l-0.586,-0.18l-0.13,-0.04l-0.515,-0.28l-0.37,-0.454l-0.166,-0.56l0.06,-0.582l0.28,-0.515l0.455,-0.37l0.56,-0.166l0.582,0.06l0.011,0.001Zm124.077,-2.27l0.468,0.35l0.297,0.504l0.083,0.58l-0.146,0.566l-0.352,0.468l-0.504,0.298l-0.337,0.118l-0.576,0.2l-0.578,0.2l-0.58,0.197l-0.58,0.195l-0.58,0.194l-0.58,0.192l-0.582,0.2l-1.166,0.375l-0.176,0.055l-0.582,0.065l-0.562,-0.163l-0.457,-0.366l-0.282,-0.513l-0.064,-0.582l0.163,-0.562l0.366,-0.457l0.513,-0.282l0.17,-0.054l0.575,-0.184l0.574,-0.185l1.145,-0.376l0.57,-0.19l0.57,-0.192l0.57,-0.194l0.57,-0.196l0.568,-0.197l0.332,-0.117l0.58,-0.082l0.567,0.146l0.003,-0.011Zm-138.122,-2.66l0.545,0.214l0.558,0.218l1.12,0.43l0.56,0.212l1.124,0.42l0.564,0.208l0.564,0.205l0.54,0.195l0.5,0.302l0.347,0.472l0.14,0.568l-0.088,0.578l-0.302,0.502l-0.47,0.347l-0.568,0.14l-0.58,-0.087l-0.543,-0.197l-0.573,-0.21l-0.573,-0.2l-0.57,-0.213l-1.14,-0.43l-0.57,-0.218l-0.568,-0.22l-0.567,-0.22l-0.55,-0.215l-0.493,-0.317l-0.334,-0.48l-0.124,-0.572l0.103,-0.576l0.316,-0.493l0.48,-0.334l0.572,-0.124l0.576,0.103l0.004,-0.008Zm151.966,-2.89l0.493,0.314l0.336,0.48l0.126,0.57l-0.102,0.577l-0.314,0.493l-0.48,0.336l-0.237,0.104l-0.556,0.242l-0.557,0.24l-0.558,0.24l-0.558,0.238l-0.56,0.236l-0.56,0.234l-0.562,0.232l-0.562,0.23l-0.86,0.35l-0.575,0.11l-0.573,-0.12l-0.484,-0.33l-0.32,-0.5l-0.11,-0.575l0.12,-0.573l0.33,-0.484l0.49,-0.32l0.294,-0.12l0.555,-0.226l0.554,-0.227l0.552,-0.23l0.552,-0.23l0.55,-0.232l0.55,-0.234l0.55,-0.235l0.548,-0.237l0.548,-0.24l0.233,-0.103l0.57,-0.126l0.577,0.102l0,0.014Zm-165.59,-3.096l0.48,0.233l0.537,0.258l0.538,0.256l0.54,0.255l0.54,0.253l0.54,0.252l0.542,0.25l0.542,0.248l0.543,0.247l0.593,0.266l0.477,0.34l0.312,0.495l0.098,0.577l-0.13,0.57l-0.338,0.477l-0.495,0.312l-0.577,0.098l-0.57,-0.13l-0.053,-0.023l-0.552,-0.25l-0.552,-0.25l-0.55,-0.252l-0.55,-0.254l-0.55,-0.255l-0.548,-0.257l-0.547,-0.26l-0.546,-0.26l-0.546,-0.262l-0.485,-0.235l-0.467,-0.353l-0.296,-0.504l-0.08,-0.58l0.147,-0.567l0.353,-0.466l0.505,-0.297l0.58,-0.08l0.567,0.147l-0.002,0.001Zm178.973,-3.492l0.516,0.276l0.37,0.453l0.17,0.56l-0.058,0.583l-0.276,0.516l-0.453,0.37l-0.223,0.12l-0.534,0.283l-1.07,0.56l-0.536,0.278l-0.536,0.276l-0.538,0.274l-0.54,0.273l-0.54,0.272l-0.86,0.43l-0.565,0.152l-0.58,-0.075l-0.507,-0.292l-0.357,-0.464l-0.153,-0.565l0.076,-0.58l0.29,-0.508l0.464,-0.357l0.317,-0.157l0.532,-0.265l0.532,-0.268l0.53,-0.27l0.53,-0.27l0.53,-0.272l0.528,-0.274l0.527,-0.275l0.526,-0.277l0.525,-0.278l0.22,-0.117l0.56,-0.17l0.582,0.057l0.001,0.001Zm-192.105,-3.512l0.488,0.283l0.514,0.297l0.515,0.295l0.515,0.293l0.517,0.292l0.517,0.29l0.518,0.29l1.04,0.573l0.565,0.308l0.45,0.374l0.273,0.517l0.055,0.583l-0.173,0.56l-0.374,0.45l-0.518,0.273l-0.583,0.054l-0.56,-0.173l-0.047,-0.026l-0.53,-0.288l-0.53,-0.29l-0.527,-0.292l-0.526,-0.293l-0.526,-0.295l-0.524,-0.296l-0.524,-0.298l-0.522,-0.3l-0.52,-0.3l-0.492,-0.286l-0.44,-0.387l-0.258,-0.526l-0.036,-0.584l0.2,-0.553l0.387,-0.44l0.525,-0.258l0.585,-0.036l0.553,0.2l-0.007,-0.011Zm204.95,-4.07l0.535,0.236l0.405,0.424l0.21,0.545l-0.014,0.585l-0.236,0.536l-0.424,0.404l-0.266,0.17l-0.51,0.32l-0.51,0.32l-0.5,0.318l-0.512,0.316l-0.512,0.314l-0.513,0.314l-0.515,0.31l-0.515,0.3l-0.517,0.31l-0.273,0.162l-0.552,0.195l-0.584,-0.03l-0.528,-0.253l-0.39,-0.435l-0.195,-0.552l0.03,-0.585l0.253,-0.528l0.435,-0.39l0.27,-0.16l0.51,-0.304l0.507,-0.305l0.507,-0.307l0.506,-0.308l0.505,-0.3l0.503,-0.312l0.503,-0.313l0.502,-0.314l0.763,-0.483l0.546,-0.21l0.585,0.014l-0.009,-0.004Zm-218.047,-4.138l0.537,0.232l0.047,0.033l0.487,0.334l0.488,0.333l0.5,0.332l0.5,0.33l0.49,0.33l0.493,0.328l0.493,0.326l0.495,0.324l0.495,0.323l0.484,0.314l0.42,0.408l0.23,0.537l0.01,0.585l-0.217,0.544l-0.407,0.42l-0.538,0.23l-0.585,0.01l-0.544,-0.216l-0.487,-0.316l-0.503,-0.328l-0.502,-0.33l-0.502,-0.33l-0.5,-0.332l-0.5,-0.334l-0.498,-0.335l-0.497,-0.337l-0.496,-0.338l-0.545,-0.375l-0.407,-0.42l-0.216,-0.545l0.01,-0.585l0.232,-0.537l0.42,-0.407l0.544,-0.216l0.585,0.01l-0.016,-0.002Zm230.834,-4.2l0.435,0.392l0.25,0.53l0.03,0.584l-0.196,0.552l-0.392,0.434l-0.342,0.255l-0.482,0.357l-0.482,0.356l-0.484,0.354l-0.97,0.704l-0.975,0.698l-0.49,0.347l-0.5,0.345l-0.182,0.127l-0.536,0.236l-0.585,0.013l-0.546,-0.212l-0.422,-0.405l-0.236,-0.536l-0.013,-0.585l0.212,-0.545l0.405,-0.423l0.178,-0.125l0.483,-0.34l0.482,-0.342l0.48,-0.343l0.48,-0.345l0.478,-0.345l0.478,-0.348l0.476,-0.348l0.476,-0.35l0.474,-0.35l0.34,-0.253l0.528,-0.25l0.585,-0.03l0.55,0.195l0.013,-0.004Zm-242.742,-4.745l0.518,0.272l0.145,0.117l0.46,0.37l0.46,0.368l0.462,0.367l0.463,0.365l0.465,0.364l0.465,0.363l0.467,0.36l0.468,0.36l0.468,0.358l0.366,0.278l0.388,0.438l0.19,0.553l-0.036,0.585l-0.256,0.526l-0.438,0.388l-0.553,0.2l-0.585,-0.035l-0.526,-0.256l-0.37,-0.28l-0.476,-0.364l-0.475,-0.365l-0.474,-0.367l-0.944,-0.737l-0.47,-0.37l-0.47,-0.372l-0.468,-0.374l-0.615,-0.494l-0.375,-0.45l-0.174,-0.56l0.053,-0.583l0.272,-0.518l0.45,-0.375l0.558,-0.174l0.583,0.053l0.004,-0.011Zm254.314,-4.727l0.462,0.358l0.29,0.508l0.073,0.58l-0.154,0.565l-0.358,0.462l-0.43,0.373l-0.453,0.39l-0.454,0.4l-0.455,0.388l-0.456,0.387l-0.458,0.386l-0.46,0.385l-0.46,0.383l-0.46,0.382l-0.462,0.38l-0.07,0.057l-0.516,0.275l-0.583,0.056l-0.56,-0.17l-0.452,-0.372l-0.275,-0.517l-0.056,-0.583l0.17,-0.56l0.372,-0.452l0.066,-0.054l0.455,-0.375l0.455,-0.376l0.453,-0.377l0.452,-0.38l0.45,-0.38l0.45,-0.382l0.448,-0.382l0.448,-0.384l0.446,-0.386l0.425,-0.37l0.508,-0.29l0.58,-0.073l0.565,0.154l0.004,-0.006Zm-265.515,-5.09l0.497,0.3l0.245,0.23l0.43,0.402l0.432,0.4l0.433,0.4l0.434,0.4l0.436,0.397l0.436,0.395l0.438,0.395l0.44,0.393l0.44,0.392l0.236,0.21l0.355,0.466l0.15,0.565l-0.08,0.58l-0.295,0.506l-0.466,0.354l-0.566,0.15l-0.58,-0.08l-0.506,-0.295l-0.24,-0.21l-0.447,-0.398l-0.445,-0.4l-0.445,-0.4l-0.443,-0.4l-0.442,-0.403l-0.44,-0.405l-0.44,-0.405l-0.438,-0.407l-0.438,-0.41l-0.248,-0.233l-0.34,-0.476l-0.132,-0.57l0.096,-0.577l0.31,-0.496l0.477,-0.34l0.57,-0.132l0.577,0.096l-0.001,0.006Zm276.336,-5.23l0.5,0.32l0.328,0.485l0.12,0.573l-0.1,0.575l-0.322,0.49l-0.512,0.517l-0.422,0.424l-0.424,0.422l-0.425,0.42l-0.426,0.42l-0.427,0.418l-0.43,0.418l-0.43,0.416l-0.43,0.414l-0.384,0.367l-0.493,0.315l-0.577,0.1l-0.57,-0.127l-0.48,-0.336l-0.315,-0.494l-0.1,-0.576l0.127,-0.57l0.336,-0.48l0.38,-0.364l0.424,-0.408l0.424,-0.4l0.422,-0.41l0.42,-0.412l0.42,-0.414l0.418,-0.415l0.417,-0.416l0.416,-0.417l0.415,-0.418l0.088,-0.1l0.484,-0.33l0.574,-0.118l0.574,0.1l-0.02,0.011Zm-286.767,-5.4l0.472,0.346l0.334,0.364l0.4,0.433l0.4,0.432l0.402,0.43l0.81,0.858l0.406,0.427l0.407,0.426l0.408,0.424l0.4,0.424l0.1,0.113l0.32,0.49l0.106,0.575l-0.12,0.573l-0.332,0.482l-0.49,0.32l-0.575,0.106l-0.573,-0.122l-0.482,-0.33l-0.114,-0.117l-0.416,-0.43l-0.414,-0.43l-0.414,-0.432l-0.823,-0.868l-0.41,-0.436l-0.41,-0.438l-0.407,-0.438l-0.405,-0.44l-0.337,-0.367l-0.304,-0.5l-0.09,-0.58l0.14,-0.568l0.346,-0.472l0.5,-0.304l0.578,-0.09l0.57,0.138l0.017,0.001Zm296.787,-5.7l0.512,0.284l0.364,0.46l0.16,0.562l-0.067,0.582l-0.284,0.512l-0.573,0.672l-0.4,0.454l-0.39,0.453l-0.393,0.452l-0.394,0.45l-0.395,0.45l-0.396,0.448l-0.398,0.447l-0.4,0.446l-0.25,0.278l-0.47,0.35l-0.567,0.143l-0.58,-0.084l-0.503,-0.3l-0.35,-0.47l-0.144,-0.567l0.084,-0.58l0.3,-0.503l0.248,-0.274l0.393,-0.44l0.392,-0.44l0.39,-0.442l0.39,-0.442l0.388,-0.444l0.386,-0.445l0.386,-0.446l0.384,-0.448l0.564,-0.662l0.458,-0.364l0.563,-0.16l0.58,0.067l0.012,0.001Zm-306.386,-5.682l0.444,0.382l0.395,0.5l0.367,0.462l0.368,0.46l0.74,0.92l0.372,0.457l0.373,0.457l0.75,0.9l0.377,0.453l0.003,0.003l0.282,0.513l0.063,0.582l-0.164,0.562l-0.367,0.456l-0.513,0.28l-0.582,0.064l-0.562,-0.164l-0.456,-0.367l-0.006,-0.007l-0.383,-0.46l-0.382,-0.46l-0.38,-0.462l-0.38,-0.464l-0.378,-0.464l-0.376,-0.466l-0.375,-0.467l-0.374,-0.468l-0.372,-0.47l-0.37,-0.47l-0.032,-0.042l-0.264,-0.522l-0.045,-0.584l0.183,-0.556l0.38,-0.444l0.523,-0.264l0.583,-0.044l0.556,0.182l0.002,0.012Zm315.543,-6.14l0.53,0.245l0.397,0.43l0.202,0.55l-0.023,0.584l-0.245,0.532l-0.25,0.342l-0.354,0.484l-0.356,0.483l-0.357,0.48l-0.358,0.48l-0.36,0.48l-0.36,0.478l-0.362,0.477l-0.364,0.476l-0.365,0.475l-0.14,0.18l-0.44,0.384l-0.555,0.186l-0.584,-0.04l-0.524,-0.26l-0.384,-0.44l-0.186,-0.555l0.04,-0.584l0.26,-0.524l0.137,-0.177l0.718,-0.936l0.357,-0.47l0.356,-0.47l0.354,-0.472l0.353,-0.474l0.35,-0.474l0.7,-0.952l0.247,-0.34l0.43,-0.397l0.55,-0.202l0.585,0.023l0.001,-0.002Zm-324.26,-5.933l0.414,0.413l0.096,0.143l0.33,0.5l0.332,0.5l0.333,0.488l0.334,0.487l0.337,0.486l0.337,0.485l0.34,0.484l0.34,0.483l0.342,0.482l0.27,0.378l0.24,0.534l0.018,0.585l-0.207,0.547l-0.4,0.426l-0.534,0.24l-0.585,0.018l-0.547,-0.207l-0.426,-0.4l-0.273,-0.382l-0.347,-0.49l-0.345,-0.5l-0.344,-0.492l-0.343,-0.492l-0.34,-0.494l-0.34,-0.494l-0.338,-0.496l-0.337,-0.497l-0.433,-0.644l-0.225,-0.54l0,-0.585l0.224,-0.54l0.413,-0.414l0.54,-0.225l0.585,0l0.54,0.224l-0.001,-0.011Zm333.046,-6.342l0.428,0.4l0.243,0.532l0.02,0.585l-0.205,0.548l-0.278,0.45l-0.318,0.5l-0.32,0.51l-0.32,0.51l-0.322,0.507l-0.324,0.506l-0.325,0.505l-0.326,0.504l-0.328,0.504l-0.33,0.5l-0.06,0.09l-0.412,0.416l-0.54,0.227l-0.585,0.003l-0.542,-0.22l-0.416,-0.412l-0.227,-0.54l-0.003,-0.586l0.22,-0.54l0.058,-0.087l0.324,-0.495l0.323,-0.495l0.322,-0.497l0.64,-0.996l0.633,-1l0.314,-0.502l0.313,-0.503l0.276,-0.446l0.4,-0.428l0.533,-0.243l0.585,-0.02l0.548,0.205l0.001,0.008Zm-341.35,-6.62l0.523,0.263l0.382,0.444l0.125,0.22l0.293,0.515l0.295,0.515l0.297,0.514l0.298,0.512l0.3,0.512l0.3,0.5l0.303,0.5l0.304,0.51l0.494,0.82l0.2,0.55l-0.026,0.585l-0.248,0.53l-0.432,0.395l-0.55,0.2l-0.584,-0.026l-0.53,-0.248l-0.395,-0.432l-0.19,-0.316l-0.3,-0.515l-0.31,-0.517l-0.307,-0.517l-0.306,-0.52l-0.304,-0.52l-0.302,-0.52l-0.3,-0.52l-0.3,-0.522l-0.298,-0.524l-0.127,-0.225l-0.183,-0.556l0.044,-0.583l0.263,-0.523l0.444,-0.382l0.556,-0.183l0.583,0.044l-0.012,0.02Zm348.632,-6.5l0.457,0.366l0.283,0.512l0.065,0.582l-0.163,0.562l-0.27,0.52l-0.56,1.07l-0.283,0.534l-0.284,0.532l-0.286,0.53l-0.287,0.53l-0.288,0.53l-0.29,0.53l-0.292,0.527l-0.015,0.03l-0.38,0.445l-0.52,0.267l-0.583,0.047l-0.557,-0.18l-0.446,-0.38l-0.267,-0.52l-0.047,-0.584l0.18,-0.557l0.014,-0.024l0.287,-0.52l0.286,-0.52l0.284,-0.52l0.283,-0.523l0.282,-0.523l0.558,-1.05l0.276,-0.526l0.275,-0.527l0.267,-0.515l0.366,-0.457l0.512,-0.283l0.582,-0.065l0.562,0.163l-0.001,-0.003Zm-355.405,-6.8l0.5,0.303l0.347,0.47l0.117,0.25l0.255,0.54l0.256,0.538l0.258,0.537l0.26,0.536l0.26,0.535l0.262,0.534l0.265,0.534l0.265,0.532l0.412,0.817l0.158,0.564l-0.07,0.58l-0.287,0.5l-0.46,0.36l-0.563,0.158l-0.582,-0.07l-0.5,-0.287l-0.36,-0.46l-0.146,-0.29l-0.272,-0.54l-0.27,-0.54l-0.268,-0.54l-0.267,-0.543l-0.265,-0.543l-0.263,-0.544l-0.262,-0.546l-0.26,-0.546l-0.26,-0.547l-0.12,-0.253l-0.14,-0.568l0.088,-0.58l0.302,-0.5l0.47,-0.347l0.568,-0.14l0.58,0.088l-0.008,0.008Zm361.67,-6.825l0.484,0.33l0.32,0.49l0.108,0.575l-0.12,0.573l-0.223,0.524l-0.24,0.558l-0.24,0.557l-0.242,0.556l-0.244,0.555l-0.493,1.108l-0.25,0.552l-0.25,0.552l-0.252,0.55l-0.008,0.02l-0.344,0.473l-0.5,0.306l-0.578,0.09l-0.57,-0.137l-0.473,-0.345l-0.306,-0.5l-0.09,-0.578l0.137,-0.57l0.007,-0.014l0.248,-0.542l0.247,-0.543l0.245,-0.545l0.243,-0.545l0.483,-1.092l0.24,-0.548l0.237,-0.548l0.235,-0.55l0.22,-0.52l0.33,-0.484l0.49,-0.32l0.575,-0.108l0.573,0.12l0.001,0Zm-367.413,-6.94l0.477,0.34l0.3,0.496l0.075,0.2l0.43,1.12l0.437,1.116l0.22,0.557l0.222,0.556l0.224,0.556l0.453,1.108l0.134,0.322l0.114,0.574l-0.114,0.574l-0.326,0.486l-0.486,0.325l-0.574,0.115l-0.574,-0.115l-0.487,-0.325l-0.325,-0.486l-0.135,-0.327l-0.23,-0.562l-0.23,-0.563l-0.228,-0.563l-0.226,-0.565l-0.224,-0.566l-0.222,-0.566l-0.22,-0.567l-0.22,-0.568l-0.218,-0.57l-0.077,-0.204l-0.096,-0.577l0.13,-0.57l0.34,-0.477l0.497,-0.3l0.577,-0.097l0.57,0.132l0.012,-0.009Zm372.622,-7.122l0.508,0.29l0.357,0.464l0.153,0.565l-0.075,0.58l-0.147,0.435l-0.197,0.58l-0.198,0.578l-0.2,0.577l-0.202,0.576l-0.41,1.15l-0.208,0.573l-0.42,1.146l-0.033,0.087l-0.307,0.498l-0.474,0.343l-0.57,0.135l-0.577,-0.092l-0.5,-0.307l-0.343,-0.475l-0.135,-0.57l0.093,-0.578l0.03,-0.083l0.208,-0.564l0.205,-0.564l0.204,-0.565l0.203,-0.566l0.2,-0.567l0.2,-0.567l0.197,-0.568l0.196,-0.57l0.194,-0.57l0.145,-0.43l0.29,-0.507l0.464,-0.358l0.565,-0.152l0.58,0.075l0.004,0.001Zm-377.296,-7.04l0.448,0.376l0.27,0.52l0.012,0.04l0.172,0.58l0.173,0.58l0.352,1.156l0.36,1.152l0.182,0.575l0.184,0.575l0.185,0.574l0.148,0.453l0.07,0.58l-0.158,0.563l-0.36,0.46l-0.51,0.287l-0.58,0.07l-0.563,-0.158l-0.46,-0.362l-0.286,-0.5l-0.15,-0.457l-0.188,-0.583l-0.187,-0.583l-0.184,-0.584l-0.183,-0.585l-0.182,-0.586l-0.18,-0.586l-0.178,-0.587l-0.176,-0.588l-0.175,-0.59l-0.013,-0.046l-0.052,-0.583l0.176,-0.558l0.376,-0.45l0.518,-0.27l0.583,-0.05l0.56,0.175l-0.004,-0.01Zm381.416,-7.38l0.528,0.25l0.392,0.434l0.196,0.552l-0.03,0.584l-0.21,0.817l-0.154,0.596l-0.157,0.597l-0.158,0.595l-0.16,0.595l-0.162,0.593l-0.164,0.594l-0.165,0.592l-0.167,0.592l-0.077,0.268l-0.268,0.52l-0.446,0.38l-0.557,0.18l-0.584,-0.048l-0.52,-0.268l-0.38,-0.446l-0.178,-0.558l0.048,-0.583l0.24,-0.846l0.163,-0.584l0.16,-0.584l0.16,-0.585l0.158,-0.585l0.156,-0.587l0.154,-0.587l0.152,-0.588l0.15,-0.588l0.054,-0.214l0.25,-0.53l0.435,-0.392l0.55,-0.196l0.585,0.03l0.006,0Zm-385,-7.1l0.42,0.408l0.23,0.537l0.073,0.34l0.13,0.597l0.263,1.192l0.27,1.188l0.138,0.594l0.14,0.592l0.142,0.592l0.143,0.59l0.03,0.116l0.026,0.585l-0.2,0.55l-0.395,0.432l-0.53,0.248l-0.584,0.026l-0.55,-0.2l-0.432,-0.395l-0.248,-0.53l-0.03,-0.12l-0.146,-0.6l-0.144,-0.6l-0.142,-0.602l-0.14,-0.602l-0.138,-0.603l-0.137,-0.604l-0.135,-0.605l-0.132,-0.605l-0.132,-0.606l-0.073,-0.346l-0.008,-0.585l0.217,-0.543l0.408,-0.42l0.537,-0.23l0.586,-0.008l0.543,0.217Zm388.555,-7.38l0.424,0.404l0.237,0.535l0.014,0.585l-0.078,0.45l-0.11,0.614l-0.11,0.613l-0.112,0.613l-0.114,0.612l-0.117,0.61l-0.118,0.61l-0.12,0.6l-0.122,0.61l-0.12,0.595l-0.226,0.54l-0.415,0.412l-0.542,0.222l-0.585,-0.002l-0.54,-0.227l-0.412,-0.415l-0.222,-0.542l0,-0.585l0.12,-0.59l0.12,-0.6l0.12,-0.6l0.116,-0.6l0.115,-0.602l0.112,-0.603l0.11,-0.603l0.11,-0.604l0.107,-0.605l0.077,-0.444l0.21,-0.546l0.404,-0.424l0.535,-0.237l0.585,-0.014l0.546,0.21l0.001,0.008Zm-391.546,-7.581l0.525,0.257l0.388,0.44l0.2,0.554l0.066,0.5l0.085,0.612l0.175,1.222l0.09,0.6l0.092,0.6l0.094,0.61l0.096,0.608l0.098,0.608l0.086,0.522l-0.02,0.585l-0.242,0.533l-0.427,0.4l-0.548,0.205l-0.585,-0.02l-0.533,-0.242l-0.4,-0.428l-0.206,-0.548l-0.086,-0.527l-0.1,-0.617l-0.097,-0.617l-0.096,-0.618l-0.093,-0.62l-0.092,-0.62l-0.1,-0.62l-0.088,-0.62l-0.086,-0.62l-0.067,-0.495l0.036,-0.584l0.257,-0.526l0.44,-0.388l0.553,-0.2l0.585,0.036l0,0.018Zm393.447,-7.33l0.453,0.37l0.276,0.516l0.06,0.582l-0.112,1.135l-0.065,0.628l-0.067,0.627l-0.07,0.627l-0.07,0.626l-0.073,0.625l-0.075,0.625l-0.076,0.625l-0.06,0.487l-0.185,0.556l-0.383,0.442l-0.524,0.262l-0.584,0.042l-0.555,-0.185l-0.442,-0.384l-0.262,-0.523l-0.042,-0.584l0.06,-0.483l0.075,-0.615l0.074,-0.615l0.07,-0.616l0.07,-0.617l0.067,-0.617l0.066,-0.618l0.064,-0.618l0.062,-0.62l0.05,-0.502l0.17,-0.56l0.37,-0.453l0.516,-0.277l0.582,-0.058l0.56,0.17Zm-394.77,-7.563l0.504,0.296l0.354,0.467l0.147,0.566l0.026,0.445l0.04,0.626l0.04,0.625l0.042,0.624l0.045,0.624l0.046,0.623l0.1,1.246l0.052,0.62l0.045,0.507l-0.064,0.582l-0.282,0.513l-0.456,0.366l-0.562,0.164l-0.582,-0.064l-0.513,-0.28l-0.366,-0.457l-0.164,-0.562l-0.045,-0.51l-0.053,-0.632l-0.05,-0.63l-0.05,-0.633l-0.047,-0.633l-0.045,-0.633l-0.044,-0.634l-0.04,-0.634l-0.066,-1.085l0.08,-0.58l0.296,-0.505l0.467,-0.353l0.566,-0.148l0.58,0.08l-0.001,-0.001Zm395.537,-7.458l0.48,0.335l0.315,0.494l0.102,0.576l-0.007,0.348l-0.015,0.64l-0.018,0.64l-0.02,0.64l-0.02,0.64l-0.023,0.64l-0.026,0.64l-0.027,0.638l-0.03,0.638l-0.03,0.576l-0.142,0.567l-0.35,0.47l-0.502,0.3l-0.58,0.086l-0.567,-0.142l-0.47,-0.35l-0.3,-0.502l-0.086,-0.58l0.028,-0.57l0.03,-0.628l0.027,-0.63l0.025,-0.63l0.023,-0.63l0.02,-0.63l0.02,-0.63l0.017,-0.63l0.015,-0.632l0.007,-0.343l0.126,-0.57l0.335,-0.48l0.493,-0.315l0.576,-0.103l0.572,0.126l0.002,0.001Zm-395.74,-7.494l0.48,0.334l0.316,0.492l0.104,0.576l-0.003,0.173l-0.01,0.633l-0.007,0.633l-0.005,0.634l-0.003,0.635l-0.001,0.635l0.001,0.635l0.003,0.635l0.005,0.634l0.007,0.633l0.001,0.072l-0.106,0.575l-0.318,0.492l-0.482,0.332l-0.572,0.122l-0.576,-0.106l-0.49,-0.318l-0.332,-0.482l-0.122,-0.572l-0.002,-0.077l-0.007,-0.643l-0.005,-0.643l-0.003,-0.644l-0.001,-0.645l0.001,-0.645l0.003,-0.644l0.005,-0.643l0.007,-0.643l0.013,-0.82l0.124,-0.572l0.334,-0.48l0.492,-0.317l0.576,-0.104l0.572,0.124l0.001,-0.001Zm395.38,-7.542l0.504,0.298l0.35,0.467l0.146,0.567l0.004,0.065l0.033,0.636l0.032,0.637l0.03,0.638l0.053,1.277l0.023,0.64l0.04,1.28l0.018,0.64l0.005,0.23l-0.1,0.577l-0.314,0.494l-0.48,0.336l-0.57,0.128l-0.576,-0.1l-0.494,-0.314l-0.337,-0.478l-0.128,-0.572l-0.005,-0.226l-0.017,-0.63l-0.02,-0.63l-0.02,-0.63l-0.023,-0.63l-0.025,-0.63l-0.027,-0.63l-0.03,-0.628l-0.03,-0.628l-0.036,-0.686l0.082,-0.58l0.298,-0.504l0.468,-0.35l0.566,-0.146l0.58,0.082Zm-394.47,-7.385l0.456,0.367l0.28,0.514l0.062,0.582l-0.056,0.618l-0.055,0.62l-0.052,0.62l-0.05,0.623l-0.05,0.623l-0.09,1.247l-0.042,0.624l-0.04,0.625l-0.02,0.338l-0.15,0.566l-0.355,0.465l-0.506,0.295l-0.58,0.078l-0.566,-0.15l-0.465,-0.355l-0.295,-0.505l-0.078,-0.58l0.02,-0.343l0.04,-0.634l0.044,-0.634l0.045,-0.633l0.047,-0.633l0.05,-0.633l0.05,-0.63l0.053,-0.632l0.112,-1.252l0.165,-0.56l0.368,-0.456l0.514,-0.28l0.582,-0.062l0.56,0.166l0.002,0.001Zm392.99,-7.58l0.524,0.26l0.385,0.44l0.186,0.554l0.08,0.617l0.078,0.623l0.076,0.625l0.075,0.625l0.073,0.625l0.07,0.626l0.07,0.627l0.067,0.627l0.065,0.628l0.038,0.38l-0.057,0.583l-0.275,0.517l-0.452,0.372l-0.56,0.17l-0.582,-0.056l-0.517,-0.275l-0.372,-0.452l-0.17,-0.56l-0.038,-0.376l-0.064,-0.618l-0.066,-0.618l-0.067,-0.617l-0.07,-0.617l-0.07,-0.616l-0.15,-1.23l-0.077,-0.615l-0.08,-0.61l0.04,-0.584l0.26,-0.524l0.44,-0.385l0.555,-0.186l0.584,0.04l0.001,0Zm-390.948,-7.232l0.425,0.403l0.238,0.534l0.016,0.585l-0.005,0.03l-0.1,0.606l-0.1,0.607l-0.098,0.608l-0.096,0.608l-0.094,0.61l-0.183,1.22l-0.088,0.61l-0.087,0.61l-0.052,0.375l-0.192,0.553l-0.388,0.437l-0.527,0.255l-0.584,0.035l-0.553,-0.192l-0.438,-0.39l-0.255,-0.527l-0.034,-0.584l0.052,-0.38l0.088,-0.62l0.1,-0.62l0.185,-1.24l0.096,-0.618l0.097,-0.617l0.1,-0.617l0.1,-0.617l0.103,-0.616l0.006,-0.033l0.21,-0.546l0.403,-0.425l0.534,-0.24l0.585,-0.016l0.547,0.21l-0.011,0.002Zm388.872,-7.362l0.418,0.41l0.23,0.54l0.152,0.734l0.123,0.608l0.242,1.21l0.118,0.61l0.117,0.61l0.114,0.612l0.112,0.613l0.11,0.613l0.056,0.316l-0.012,0.585l-0.235,0.536l-0.423,0.405l-0.545,0.213l-0.585,-0.013l-0.536,-0.235l-0.405,-0.422l-0.213,-0.546l-0.055,-0.31l-0.11,-0.604l-0.11,-0.603l-0.112,-0.603l-0.115,-0.602l-0.116,-0.6l-0.12,-0.6l-0.12,-0.6l-0.12,-0.6l-0.15,-0.72l-0.007,-0.585l0.22,-0.543l0.41,-0.418l0.54,-0.23l0.585,-0.006l0.543,0.22l-0.001,0.005Zm-386.244,-7.504l0.53,0.25l0.394,0.433l0.198,0.55l-0.028,0.585l-0.06,0.238l-0.145,0.59l-0.143,0.59l-0.142,0.592l-0.14,0.592l-0.138,0.594l-0.136,0.594l-0.135,0.594l-0.132,0.596l-0.18,0.815l-0.233,0.537l-0.42,0.407l-0.545,0.215l-0.585,-0.01l-0.537,-0.232l-0.407,-0.42l-0.215,-0.545l0.01,-0.585l0.05,-0.224l0.132,-0.605l0.135,-0.605l0.137,-0.604l0.138,-0.603l0.14,-0.602l0.142,-0.602l0.144,-0.6l0.146,-0.6l0.147,-0.6l0.06,-0.243l0.25,-0.53l0.434,-0.394l0.55,-0.198l0.584,0.028l0,0.002Zm382.524,-7.106l0.448,0.377l0.27,0.52l0.118,0.406l0.17,0.59l0.167,0.592l0.165,0.592l0.164,0.594l0.162,0.593l0.16,0.595l0.158,0.595l0.157,0.597l0.175,0.678l0.032,0.584l-0.194,0.552l-0.39,0.436l-0.528,0.253l-0.584,0.032l-0.552,-0.195l-0.436,-0.39l-0.253,-0.527l-0.02,-0.077l-0.152,-0.588l-0.154,-0.587l-0.156,-0.587l-0.317,-1.17l-0.16,-0.584l-0.163,-0.584l-0.165,-0.582l-0.166,-0.582l-0.116,-0.402l-0.05,-0.583l0.177,-0.558l0.377,-0.447l0.52,-0.27l0.584,-0.05l0.557,0.177l-0.005,0Zm-378.236,-7.264l0.508,0.3l0.36,0.462l0.154,0.564l-0.073,0.58l0,0.001l-0.376,1.145l-0.185,0.574l-0.184,0.575l-0.182,0.575l-0.18,0.576l-0.18,0.576l-0.352,1.156l-0.15,0.5l-0.274,0.517l-0.452,0.373l-0.56,0.17l-0.583,-0.055l-0.517,-0.274l-0.373,-0.45l-0.172,-0.56l0.056,-0.583l0.15,-0.505l0.178,-0.587l0.18,-0.586l0.182,-0.586l0.183,-0.585l0.184,-0.584l0.375,-1.166l0.2,-0.58l0.194,-0.587l0.3,-0.508l0.462,-0.36l0.565,-0.155l0.58,0.074l-0.018,-0.007Zm373.41,-7.02l0.476,0.34l0.308,0.497l0.298,0.798l0.42,1.146l0.208,0.573l0.205,0.575l0.204,0.575l0.202,0.576l0.2,0.577l0.3,0.874l0.077,0.58l-0.15,0.565l-0.356,0.465l-0.507,0.293l-0.58,0.077l-0.566,-0.15l-0.464,-0.356l-0.293,-0.507l-0.1,-0.29l-0.196,-0.57l-0.197,-0.568l-0.2,-0.567l-0.2,-0.567l-0.203,-0.566l-0.204,-0.565l-0.205,-0.564l-0.208,-0.564l-0.292,-0.785l-0.095,-0.577l0.133,-0.57l0.342,-0.475l0.497,-0.31l0.577,-0.095l0.57,0.134l-0.001,0.001Zm-368.043,-6.983l0.486,0.327l0.324,0.487l0.112,0.575l-0.116,0.573l-0.187,0.448l-0.23,0.552l-0.227,0.554l-0.226,0.554l-0.224,0.556l-0.222,0.556l-0.22,0.557l-0.22,0.558l-0.218,0.558l-0.244,0.633l-0.31,0.495l-0.478,0.34l-0.57,0.13l-0.577,-0.098l-0.496,-0.312l-0.338,-0.477l-0.13,-0.57l0.098,-0.577l0.03,-0.078l0.22,-0.568l0.22,-0.567l0.222,-0.566l0.224,-0.566l0.226,-0.565l0.228,-0.563l0.23,-0.563l0.23,-0.562l0.232,-0.562l0.19,-0.45l0.327,-0.486l0.487,-0.324l0.575,-0.112l0.573,0.116l-0.001,-0.003Zm362.142,-6.892l0.5,0.304l0.346,0.472l0.072,0.157l0.254,0.55l0.252,0.55l0.5,1.104l0.247,0.554l0.246,0.554l0.244,0.555l0.242,0.556l0.24,0.557l0.165,0.384l0.12,0.573l-0.107,0.575l-0.32,0.49l-0.483,0.33l-0.572,0.12l-0.576,-0.107l-0.5,-0.32l-0.33,-0.483l-0.163,-0.38l-0.237,-0.548l-0.24,-0.548l-0.24,-0.547l-0.485,-1.1l-0.245,-0.545l-0.247,-0.543l-0.248,-0.542l-0.25,-0.542l-0.07,-0.152l-0.14,-0.57l0.09,-0.578l0.304,-0.5l0.473,-0.346l0.568,-0.14l0.58,0.1l0.01,0.006Zm-355.72,-6.66l0.46,0.363l0.286,0.51l0.068,0.58l-0.16,0.563l-0.208,0.41l-0.27,0.53l-0.268,0.532l-0.265,0.532l-0.265,0.534l-0.262,0.534l-0.26,0.535l-0.26,0.536l-0.258,0.537l-0.315,0.662l-0.348,0.47l-0.502,0.3l-0.58,0.086l-0.568,-0.142l-0.47,-0.35l-0.3,-0.502l-0.086,-0.58l0.142,-0.568l0.06,-0.127l0.26,-0.546l0.262,-0.546l0.263,-0.544l0.265,-0.543l0.267,-0.543l0.268,-0.54l0.27,-0.54l0.272,-0.54l0.273,-0.54l0.21,-0.413l0.362,-0.46l0.51,-0.286l0.58,-0.068l0.564,0.16l0.003,0.004Zm348.781,-6.725l0.52,0.265l0.38,0.444l0.385,0.69l0.292,0.527l0.29,0.53l0.288,0.53l0.287,0.53l0.286,0.53l0.284,0.532l0.283,0.534l0.48,0.915l0.164,0.562l-0.063,0.582l-0.28,0.513l-0.456,0.367l-0.562,0.164l-0.582,-0.063l-0.513,-0.28l-0.367,-0.456l-0.197,-0.377l-0.276,-0.526l-0.28,-0.525l-0.28,-0.524l-0.282,-0.523l-0.283,-0.523l-0.284,-0.52l-0.573,-1.04l-0.29,-0.518l-0.1,-0.16l-0.18,-0.557l0.045,-0.583l0.265,-0.522l0.445,-0.38l0.556,-0.182l0.584,0.046l0.014,-0.002Zm-341.35,-6.302l0.43,0.396l0.246,0.53l0.025,0.585l-0.202,0.55l-0.264,0.433l-0.307,0.507l-0.305,0.507l-0.304,0.51l-0.303,0.5l-0.3,0.5l-0.597,1.024l-0.297,0.514l-0.295,0.515l-0.056,0.097l-0.383,0.443l-0.523,0.262l-0.584,0.042l-0.555,-0.185l-0.443,-0.383l-0.262,-0.524l-0.04,-0.583l0.184,-0.556l0.058,-0.102l0.3,-0.522l0.3,-0.52l0.302,-0.52l0.304,-0.52l0.306,-0.52l0.307,-0.517l0.31,-0.517l0.3,-0.515l0.31,-0.515l0.267,-0.437l0.396,-0.43l0.53,-0.246l0.585,-0.024l0.55,0.2l0.01,0.021Zm333.417,-6.52l0.54,0.225l0.413,0.415l0.147,0.222l0.66,1l0.328,0.504l0.326,0.504l0.325,0.505l0.324,0.506l0.322,0.507l0.64,1.02l0.197,0.316l0.206,0.548l-0.02,0.585l-0.24,0.533l-0.427,0.4l-0.548,0.207l-0.585,-0.02l-0.533,-0.242l-0.4,-0.427l-0.195,-0.312l-0.314,-0.502l-0.316,-0.5l-0.317,-0.5l-0.64,-0.996l-0.322,-0.497l-0.323,-0.495l-0.324,-0.495l-0.326,-0.493l-0.145,-0.218l-0.223,-0.54l0.001,-0.585l0.226,-0.54l0.414,-0.413l0.542,-0.222l0.585,0.001l0.002,-0.001Zm-325.55,-6.15l0.532,0.243l0.398,0.43l0.204,0.55l-0.02,0.585l-0.244,0.532l-0.007,0.01l-0.345,0.48l-0.343,0.48l-0.342,0.482l-0.34,0.483l-0.34,0.484l-0.674,0.97l-0.334,0.487l-0.333,0.488l-0.332,0.5l-0.016,0.023l-0.415,0.413l-0.542,0.222l-0.585,-0.003l-0.54,-0.226l-0.412,-0.415l-0.222,-0.542l0.002,-0.585l0.226,-0.54l0.018,-0.027l0.337,-0.497l0.338,-0.496l0.34,-0.494l0.34,-0.494l0.343,-0.492l0.344,-0.492l0.345,-0.5l0.347,-0.49l0.35,-0.488l0.36,-0.502l0.428,-0.398l0.55,-0.204l0.585,0.022l-0.001,0.001Zm317.228,-5.852l0.443,0.383l0.238,0.305l0.367,0.474l0.365,0.475l0.364,0.476l0.362,0.477l0.36,0.478l0.36,0.48l0.358,0.48l0.357,0.48l0.356,0.483l0.156,0.214l0.247,0.53l0.025,0.584l-0.2,0.55l-0.396,0.43l-0.53,0.247l-0.585,0.025l-0.55,-0.2l-0.43,-0.396l-0.154,-0.2l-0.35,-0.475l-0.35,-0.474l-0.353,-0.473l-0.354,-0.473l-0.356,-0.47l-0.357,-0.47l-0.718,-0.936l-0.36,-0.467l-0.236,-0.302l-0.262,-0.523l-0.043,-0.583l0.184,-0.556l0.383,-0.443l0.523,-0.262l0.584,-0.043l0.555,0.184l-0.003,-0.009Zm-307.9,-5.946l0.513,0.282l0.365,0.458l0.162,0.562l-0.065,0.582l-0.282,0.512l-0.097,0.114l-0.38,0.452l-0.377,0.453l-0.75,0.9l-0.745,0.914l-0.37,0.46l-0.37,0.46l-0.678,0.85l-0.446,0.38l-0.557,0.18l-0.583,-0.048l-0.52,-0.267l-0.38,-0.446l-0.18,-0.558l0.048,-0.583l0.267,-0.52l0.312,-0.393l0.374,-0.468l0.375,-0.467l0.376,-0.466l0.757,-0.928l0.38,-0.462l0.382,-0.46l0.383,-0.46l0.484,-0.577l0.457,-0.365l0.563,-0.162l0.58,0.065l0.002,0.006Zm298.144,-5.577l0.47,0.348l0.76,0.84l0.4,0.446l0.398,0.447l0.396,0.448l0.395,0.45l0.394,0.45l0.393,0.452l0.39,0.453l0.4,0.454l0.08,0.095l0.286,0.51l0.07,0.58l-0.16,0.563l-0.362,0.46l-0.51,0.286l-0.58,0.068l-0.563,-0.16l-0.46,-0.362l-0.078,-0.092l-0.384,-0.448l-0.386,-0.446l-0.386,-0.445l-0.388,-0.444l-0.39,-0.442l-0.39,-0.442l-0.392,-0.44l-0.393,-0.44l-0.395,-0.438l-0.355,-0.392l-0.3,-0.502l-0.086,-0.58l0.142,-0.568l0.35,-0.47l0.502,-0.3l0.58,-0.086l0.568,0.143l-0.016,0.004Zm-287.956,-5.486l0.5,0.32l0.33,0.483l0.12,0.573l-0.108,0.575l-0.32,0.5l-0.213,0.217l-0.41,0.422l-0.4,0.424l-0.408,0.424l-0.407,0.426l-0.406,0.427l-0.81,0.858l-0.402,0.43l-0.4,0.432l-0.236,0.256l-0.473,0.344l-0.57,0.137l-0.578,-0.09l-0.5,-0.305l-0.344,-0.473l-0.137,-0.57l0.09,-0.578l0.305,-0.5l0.24,-0.26l0.407,-0.438l0.41,-0.438l0.41,-0.436l0.41,-0.434l0.412,-0.434l0.414,-0.432l0.414,-0.43l0.416,-0.43l0.633,-0.65l0.483,-0.33l0.573,-0.12l0.575,0.108l-0.02,-0.008Zm277.355,-5.273l0.496,0.31l0.07,0.067l0.434,0.412l0.432,0.414l0.43,0.414l0.43,0.416l0.43,0.418l0.427,0.418l0.426,0.42l0.425,0.42l0.424,0.422l0.398,0.4l0.324,0.487l0.114,0.574l-0.115,0.574l-0.326,0.486l-0.487,0.324l-0.575,0.114l-0.574,-0.115l-0.486,-0.326l-0.395,-0.396l-0.417,-0.416l-0.418,-0.415l-0.42,-0.414l-0.42,-0.412l-0.422,-0.41l-0.424,-0.4l-0.424,-0.408l-0.426,-0.408l-0.495,-0.47l-0.34,-0.478l-0.13,-0.57l0.098,-0.577l0.31,-0.496l0.477,-0.34l0.57,-0.13l0.577,0.098l0.002,-0.007Zm-266.364,-4.993l0.465,0.356l0.294,0.506l0.077,0.58l-0.15,0.566l-0.356,0.465l-0.345,0.303l-0.442,0.39l-0.44,0.392l-0.44,0.393l-0.438,0.395l-0.436,0.395l-0.436,0.397l-0.867,0.798l-0.432,0.4l-0.14,0.13l-0.497,0.308l-0.578,0.094l-0.57,-0.133l-0.475,-0.342l-0.308,-0.498l-0.095,-0.577l0.134,-0.57l0.342,-0.475l0.143,-0.134l0.438,-0.407l0.44,-0.405l0.44,-0.405l0.442,-0.403l0.443,-0.4l0.445,-0.4l0.445,-0.4l0.447,-0.398l0.448,-0.396l0.35,-0.307l0.507,-0.294l0.58,-0.077l0.565,0.15l0,0.003Zm254.99,-4.937l0.517,0.274l0.193,0.157l0.464,0.38l0.462,0.38l0.46,0.382l0.46,0.383l0.46,0.385l0.457,0.385l0.457,0.388l0.455,0.388l0.454,0.4l0.31,0.267l0.36,0.46l0.156,0.565l-0.072,0.58l-0.29,0.5l-0.462,0.36l-0.564,0.156l-0.58,-0.072l-0.51,-0.29l-0.305,-0.264l-0.448,-0.384l-0.448,-0.382l-0.45,-0.382l-0.45,-0.38l-0.452,-0.38l-0.453,-0.377l-0.455,-0.376l-0.455,-0.375l-0.456,-0.373l-0.2,-0.154l-0.374,-0.45l-0.172,-0.56l0.054,-0.583l0.274,-0.518l0.45,-0.373l0.56,-0.172l0.583,0.054l0.01,0.001Zm-243.253,-4.47l0.436,0.39l0.253,0.527l0.032,0.585l-0.194,0.552l-0.4,0.436l-0.008,0.005l-0.47,0.356l-0.47,0.357l-0.936,0.718l-0.467,0.362l-0.465,0.362l-0.465,0.364l-0.463,0.365l-0.462,0.367l-0.46,0.368l-0.032,0.025l-0.52,0.27l-0.583,0.05l-0.558,-0.176l-0.45,-0.376l-0.27,-0.52l-0.05,-0.583l0.175,-0.558l0.376,-0.45l0.036,-0.028l0.468,-0.374l0.47,-0.372l0.47,-0.37l0.472,-0.37l0.472,-0.368l0.474,-0.367l0.475,-0.365l0.476,-0.364l0.955,-0.724l0.01,-0.008l0.528,-0.253l0.584,-0.032l0.552,0.194l0.009,0.005Zm231.162,-4.574l0.536,0.234l0.312,0.217l0.492,0.344l0.5,0.345l0.49,0.347l0.975,0.698l0.97,0.704l0.484,0.354l0.698,0.515l0.393,0.434l0.197,0.55l-0.028,0.584l-0.25,0.53l-0.434,0.394l-0.55,0.197l-0.584,-0.028l-0.53,-0.25l-0.212,-0.157l-0.476,-0.35l-0.476,-0.348l-0.478,-0.348l-0.478,-0.345l-0.48,-0.345l-0.48,-0.343l-0.482,-0.342l-0.483,-0.34l-0.792,-0.554l-0.406,-0.42l-0.214,-0.545l0.01,-0.585l0.234,-0.537l0.422,-0.406l0.544,-0.213l0.586,0.01l-0.01,-0.001Zm-219.29,-4.16l0.536,0.235l0.405,0.422l0.213,0.545l-0.012,0.585l-0.235,0.536l-0.422,0.405l-0.103,0.067l-0.498,0.32l-0.497,0.322l-1,0.647l-0.493,0.326l-0.493,0.328l-0.49,0.33l-0.5,0.33l-0.5,0.332l-0.42,0.287l-0.54,0.23l-0.585,0.006l-0.543,-0.22l-0.418,-0.4l-0.23,-0.538l-0.005,-0.586l0.218,-0.543l0.4,-0.417l0.424,-0.3l0.497,-0.337l0.498,-0.335l0.5,-0.334l0.5,-0.332l0.5,-0.33l0.503,-0.33l0.503,-0.328l0.504,-0.326l0.612,-0.394l0.546,-0.213l0.585,0.012l0.04,-0.002Zm207.1,-3.756l0.41,0.24l0.517,0.307l0.517,0.31l0.515,0.3l0.515,0.31l0.513,0.314l0.512,0.314l0.512,0.316l0.5,0.318l0.644,0.404l0.424,0.403l0.238,0.534l0.016,0.585l-0.2,0.547l-0.403,0.425l-0.534,0.238l-0.585,0.015l-0.547,-0.2l-0.13,-0.082l-0.502,-0.314l-0.503,-0.313l-0.503,-0.312l-0.505,-0.3l-0.506,-0.308l-0.507,-0.307l-0.507,-0.305l-0.51,-0.304l-0.51,-0.303l-0.405,-0.238l-0.436,-0.4l-0.255,-0.527l-0.033,-0.585l0.194,-0.552l0.39,-0.437l0.528,-0.254l0.584,-0.033l0.552,0.193l0,0.001Zm-194.066,-3.82l0.517,0.275l0.372,0.45l0.17,0.56l-0.056,0.583l-0.274,0.516l-0.452,0.373l-0.167,0.1l-0.523,0.283l-0.52,0.284l-0.52,0.286l-0.52,0.287l-0.518,0.29l-0.517,0.29l-0.517,0.292l-0.515,0.293l-0.515,0.295l-0.366,0.212l-0.554,0.188l-0.584,-0.04l-0.525,-0.26l-0.386,-0.44l-0.188,-0.554l0.038,-0.584l0.26,-0.525l0.44,-0.386l0.892,-0.513l0.524,-0.298l0.524,-0.296l0.526,-0.295l0.526,-0.293l0.527,-0.292l0.53,-0.29l0.53,-0.288l0.702,-0.38l0.56,-0.17l0.583,0.056l-0.004,-0.009Zm180.762,-3.342l0.46,0.226l0.54,0.268l0.54,0.27l0.54,0.272l0.54,0.273l0.538,0.274l0.536,0.276l0.536,0.278l0.535,0.28l0.622,0.327l0.453,0.37l0.278,0.516l0.06,0.582l-0.168,0.56l-0.37,0.454l-0.515,0.278l-0.582,0.06l-0.56,-0.167l-0.083,-0.044l-0.526,-0.277l-0.527,-0.275l-0.528,-0.274l-0.53,-0.272l-0.53,-0.27l-0.53,-0.27l-0.532,-0.268l-0.532,-0.265l-0.534,-0.265l-0.455,-0.223l-0.465,-0.356l-0.293,-0.507l-0.077,-0.58l0.15,-0.565l0.355,-0.465l0.507,-0.293l0.58,-0.077l0.566,0.15l0.001,-0.001Zm-167.191,-3.222l0.494,0.314l0.337,0.478l0.13,0.57l-0.1,0.577l-0.314,0.494l-0.478,0.337l-0.174,0.077l-0.545,0.244l-0.545,0.245l-0.543,0.247l-0.542,0.248l-0.542,0.25l-0.54,0.252l-0.54,0.253l-0.54,0.255l-0.538,0.256l-0.357,0.172l-0.566,0.145l-0.58,-0.082l-0.504,-0.298l-0.35,-0.468l-0.146,-0.567l0.083,-0.58l0.298,-0.504l0.468,-0.352l0.36,-0.173l0.546,-0.26l0.547,-0.26l0.548,-0.257l0.55,-0.255l0.55,-0.254l0.55,-0.252l0.552,-0.25l0.552,-0.25l0.732,-0.326l0.57,-0.13l0.577,0.1l0,0.004Zm153.377,-2.907l0.44,0.175l0.563,0.228l0.563,0.23l0.562,0.23l0.562,0.232l0.56,0.234l0.56,0.236l0.558,0.238l0.558,0.24l0.557,0.24l0.1,0.043l0.48,0.334l0.316,0.492l0.104,0.576l-0.125,0.572l-0.334,0.48l-0.492,0.316l-0.576,0.103l-0.572,-0.124l-0.095,-0.042l-0.548,-0.237l-0.55,-0.235l-0.55,-0.234l-0.55,-0.232l-0.552,-0.23l-0.552,-0.23l-0.554,-0.227l-0.555,-0.226l-0.555,-0.224l-0.434,-0.174l-0.49,-0.32l-0.33,-0.482l-0.12,-0.573l0.107,-0.575l0.32,-0.49l0.482,-0.33l0.573,-0.12l0.575,0.107l-0.006,-0.001Zm-139.343,-2.605l0.47,0.35l0.3,0.503l0.085,0.58l-0.144,0.567l-0.35,0.47l-0.503,0.3l-0.095,0.034l-0.566,0.203l-0.565,0.204l-0.564,0.205l-0.564,0.208l-0.562,0.21l-0.562,0.21l-0.56,0.212l-0.56,0.215l-0.56,0.215l-0.42,0.164l-0.577,0.1l-0.57,-0.126l-0.48,-0.336l-0.314,-0.493l-0.102,-0.576l0.126,-0.572l0.336,-0.48l0.493,-0.315l0.424,-0.165l0.568,-0.22l0.57,-0.218l0.57,-0.215l0.57,-0.214l0.57,-0.213l1.146,-0.42l0.573,-0.208l0.575,-0.205l0.1,-0.036l0.58,-0.084l0.567,0.144l-0.005,0.002Zm125.103,-2.455l0.316,0.1l0.584,0.184l0.583,0.187l0.583,0.188l0.582,0.2l0.58,0.192l0.58,0.194l0.58,0.195l0.58,0.197l0.775,0.267l0.505,0.296l0.353,0.467l0.148,0.567l-0.08,0.58l-0.296,0.505l-0.467,0.353l-0.566,0.148l-0.58,-0.08l-0.193,-0.067l-0.57,-0.196l-0.57,-0.194l-0.57,-0.192l-0.57,-0.19l-1.145,-0.376l-0.574,-0.185l-0.575,-0.184l-0.575,-0.182l-0.31,-0.097l-0.513,-0.28l-0.368,-0.455l-0.165,-0.562l0.063,-0.582l0.28,-0.513l0.456,-0.368l0.562,-0.165l0.58,0.063l-0.003,-0.015Zm-110.692,-1.97l0.442,0.384l0.26,0.524l0.04,0.583l-0.186,0.555l-0.384,0.442l-0.524,0.26l-0.488,0.133l-0.584,0.16l-0.584,0.163l-1.164,0.33l-0.58,0.168l-0.58,0.17l-0.58,0.172l-0.58,0.173l-0.578,0.176l-0.002,0l-0.582,0.06l-0.56,-0.168l-0.453,-0.37l-0.277,-0.515l-0.06,-0.582l0.168,-0.56l0.37,-0.453l0.516,-0.277l0.006,-0.002l0.587,-0.178l0.588,-0.176l0.59,-0.174l0.59,-0.173l0.6,-0.17l0.59,-0.17l0.592,-0.167l0.592,-0.165l0.594,-0.164l0.492,-0.134l0.584,-0.04l0.555,0.186l-0.01,-0.001Zm96.107,-1.988l0.658,0.153l0.602,0.142l0.6,0.144l1.2,0.293l0.6,0.15l0.598,0.15l0.598,0.153l0.596,0.154l0.418,0.1l0.526,0.256l0.39,0.438l0.19,0.553l-0.036,0.585l-0.256,0.526l-0.438,0.388l-0.553,0.19l-0.585,-0.035l-0.413,-0.11l-0.587,-0.152l-0.59,-0.15l-0.59,-0.15l-0.6,-0.147l-0.59,-0.145l-0.59,-0.143l-0.592,-0.142l-0.592,-0.14l-0.645,-0.15l-0.534,-0.24l-0.4,-0.426l-0.208,-0.547l0.017,-0.585l0.24,-0.534l0.426,-0.402l0.547,-0.208l0.585,0.017l0.008,0.014Zm-81.934,-1.552l0.538,0.23l0.41,0.417l0.22,0.543l-0.005,0.585l-0.228,0.54l-0.417,0.4l-0.543,0.22l-0.155,0.03l-0.6,0.116l-0.6,0.12l-0.6,0.12l-0.6,0.12l-0.6,0.124l-0.598,0.125l-1.194,0.257l-0.882,0.194l-0.586,0.014l-0.545,-0.212l-0.423,-0.404l-0.237,-0.535l-0.013,-0.586l0.21,-0.545l0.405,-0.423l0.535,-0.237l0.29,-0.065l1.21,-0.264l0.606,-0.13l0.608,-0.127l0.608,-0.126l0.608,-0.123l0.6,-0.122l0.61,-0.12l0.77,-0.15l0.586,0.005l0.012,0.009Zm67.33,-1.246l0.618,0.096l0.617,0.097l0.618,0.1l0.616,0.1l0.616,0.103l0.615,0.105l0.614,0.107l0.614,0.11l0.613,0.11l0.186,0.034l0.544,0.216l0.42,0.407l0.232,0.538l0.008,0.585l-0.216,0.544l-0.408,0.42l-0.537,0.232l-0.585,0.008l-0.18,-0.033l-0.604,-0.11l-0.605,-0.107l-0.605,-0.105l-0.606,-0.104l-0.606,-0.1l-0.607,-0.1l-0.608,-0.098l-0.608,-0.096l-0.61,-0.094l-0.232,-0.035l-0.55,-0.2l-0.432,-0.394l-0.25,-0.53l-0.027,-0.585l0.2,-0.55l0.394,-0.433l0.53,-0.248l0.585,-0.027l0.237,0.035l-0.001,0.002Zm-52.394,-0.977l0.52,0.268l0.378,0.447l0.178,0.558l-0.05,0.583l-0.27,0.52l-0.447,0.378l-0.558,0.178l-0.25,0.028l-0.616,0.07l-0.615,0.074l-0.615,0.075l-0.615,0.077l-0.613,0.08l-0.614,0.08l-0.612,0.083l-0.612,0.085l-0.742,0.106l-0.585,-0.03l-0.528,-0.252l-0.392,-0.435l-0.195,-0.552l0.03,-0.584l0.252,-0.528l0.435,-0.392l0.55,-0.195l0.136,-0.02l0.62,-0.088l0.62,-0.086l0.622,-0.084l0.622,-0.082l0.624,-0.08l0.623,-0.078l0.625,-0.076l0.625,-0.075l0.625,-0.073l0.254,-0.028l0.583,0.05l0.007,-0.002Zm37.376,-0.74l0.633,0.05l0.63,0.05l0.632,0.053l1.26,0.113l1.26,0.12l0.628,0.062l0.628,0.065l0.118,0.013l0.56,0.174l0.45,0.375l0.27,0.518l0.053,0.583l-0.174,0.56l-0.375,0.45l-0.518,0.272l-0.583,0.053l-0.114,-0.012l-0.618,-0.064l-0.62,-0.062l-0.62,-0.06l-0.62,-0.058l-1.242,-0.11l-0.62,-0.052l-1.246,-0.1l-0.23,-0.017l-0.563,-0.156l-0.462,-0.36l-0.288,-0.51l-0.07,-0.58l0.157,-0.564l0.36,-0.46l0.5,-0.288l0.58,-0.07l0.233,0.017l0.011,-0.005Zm-22.313,-0.348l0.498,0.308l0.343,0.474l0.135,0.57l-0.094,0.577l-0.307,0.5l-0.474,0.342l-0.57,0.135l-0.137,0.005l-0.63,0.025l-0.63,0.027l-0.628,0.03l-0.628,0.03l-0.627,0.033l-0.626,0.035l-0.626,0.036l-0.626,0.04l-0.788,0.052l-0.58,-0.075l-0.508,-0.29l-0.358,-0.464l-0.153,-0.565l0.075,-0.58l0.292,-0.508l0.463,-0.357l0.565,-0.153l0.168,-0.012l0.634,-0.04l1.27,-0.077l0.636,-0.035l0.636,-0.033l0.637,-0.032l0.638,-0.03l0.638,-0.027l0.64,-0.026l0.142,-0.005l0.578,0.093l0.002,-0.003Zm7.626,-0.233l0.645,0.003l0.643,0.005l0.643,0.007l1.285,0.02l0.642,0.013l0.64,0.015l0.9,0.025l0.57,0.132l0.476,0.34l0.31,0.496l0.096,0.577l-0.13,0.57l-0.34,0.477l-0.496,0.3l-0.577,0.097l-0.256,-0.008l-0.63,-0.017l-0.632,-0.015l-0.632,-0.013l-0.633,-0.01l-0.633,-0.01l-0.633,-0.007l-0.634,-0.005l-0.635,-0.003l-0.637,-0.001l-0.574,-0.115l-0.486,-0.326l-0.325,-0.487l-0.113,-0.574l0.115,-0.574l0.326,-0.486l0.487,-0.325l0.574,-0.113l0.642,0.001l0.002,0.011Z"/><circle cx="629" cy="400" r="109.477" style="fill:none;stroke:#000;stroke-width:3px;stroke-dasharray:6,9,0,0;"/><text x="961.074px" y="632.536px" style="font-family:'ArialMT', 'Arial', sans-serif;font-size:24px;fill:#ad6700;">Ultra-reliable</text><text x="961.074px" y="657.321px" style="font-family:'ArialMT', 'Arial', sans-serif;font-size:24px;fill:#ad6700;">and Low Latency</text><text x="961.074px" y="682.106px" style="font-family:'ArialMT', 'Arial', sans-serif;font-size:24px;fill:#ad6700;">Communications</text><path d="M783.255,573.522l0.283,0.078l0.263,0.132l116.633,73.645l44.566,0l0.293,0.03l0.28,0.085l0.26,0.14l0.228,0.186l0.186,0.228l0.14,0.26l0.085,0.28l0.03,0.293l-0.03,0.293l-0.085,0.28l-0.14,0.26l-0.186,0.228l-0.228,0.186l-0.26,0.14l-0.28,0.085l-0.293,0.03l-45.434,0l-117.79,-74.512l-0.146,-0.255l-0.092,-0.28l-0.037,-0.292l0.022,-0.294l0.078,-0.283l0.132,-0.263l0.18,-0.232l0.223,-0.192l0.255,-0.146l0.28,-0.092l0.292,-0.036l0.294,0.02l-0.002,-0.002Z" style="fill:#ad6700;fill-opacity:0.7;"/><path d="M741,129l159,159l0,225l-195,70l-151,0l-196,-70l0,-223l161,-161l222,0Z" style="fill:#c2e1eb;fill-opacity:0.75;stroke:#3891af;stroke-width:2px;stroke-linecap:butt;stroke-miterlimit:2;"/><path d="M741,671l-154,-170l-59,-59l0,-84l59,-59l84,0l59,59l170,154l-159,159Z" style="fill:#ffb74d;fill-opacity:0.5;stroke:#ad6700;stroke-width:2px;stroke-linecap:butt;stroke-miterlimit:2;"/><path d="M446.203,475.913l81.58,-117.673l59.24,-59.24l83.977,0l59,59l0,84l-213,229l-70.797,-195.087Z" style="fill:#efa2a1;fill-opacity:0.75;stroke:#a50b09;stroke-width:2px;stroke-linecap:butt;stroke-miterlimit:2;"/><g transform="matrix(0.986843,-0.161681,0.161681,0.986843,-8.82782,93.1297)"><text x="567.806px" y="100.806px" style="font-family:'ArialMT', 'Arial', sans-serif;font-size:16px;">H</text></g><g transform="matrix(0.990951,-0.134225,0.134225,0.990951,-8.04043,78.643)"><text x="579.233px" y="98.953px" style="font-family:'ArialMT', 'Arial', sans-serif;font-size:16px;">a</text></g><g transform="matrix(0.993923,-0.110082,0.110082,0.993923,-7.18772,65.3282)"><text x="588.053px" y="97.76px" style="font-family:'ArialMT', 'Arial', sans-serif;font-size:16px;">u</text></g><g transform="matrix(0.995816,-0.091377,0.091378,0.995816,-6.34828,54.9479)"><text x="596.9px" y="96.801px" style="font-family:'ArialMT', 'Arial', sans-serif;font-size:16px;">t</text></g><g transform="matrix(0.99731,-0.073297,0.073298,0.99731,-5.44678,44.3327)"><text x="601.299px" y="96.376px" style="font-family:'ArialMT', 'Arial', sans-serif;font-size:16px;">e</text></g><g transform="matrix(0.999067,-0.043186,0.043186,0.999067,-3.55106,26.6325)"><text x="614.63px" y="95.505px" style="font-family:'ArialMT', 'Arial', sans-serif;font-size:16px;">i</text></g><g transform="matrix(0.999819,-0.019014,0.019014,0.999819,-1.70013,11.7712)"><text x="618.177px" y="95.292px" style="font-family:'ArialMT', 'Arial', sans-serif;font-size:16px;">m</text></g><g transform="matrix(0.999905,0.013803,-0.013803,0.999905,1.37243,-8.70736)"><text x="631.487px" y="95.071px" style="font-family:'ArialMT', 'Arial', sans-serif;font-size:16px;">p</text></g><g transform="matrix(0.999222,0.03944,-0.03944,0.999222,4.2526,-25.1831)"><text x="640.394px" y="95.191px" style="font-family:'ArialMT', 'Arial', sans-serif;font-size:16px;">o</text></g><g transform="matrix(0.998028,0.062765,-0.062765,0.998028,7.27777,-40.5644)"><text x="649.292px" y="95.556px" style="font-family:'ArialMT', 'Arial', sans-serif;font-size:16px;">r</text></g><g transform="matrix(0.997113,0.075938,-0.075938,0.997113,9.17188,-49.4337)"><text x="654.621px" y="95.89px" style="font-family:'ArialMT', 'Arial', sans-serif;font-size:16px;">t</text></g><g transform="matrix(0.995397,0.095833,-0.095833,0.995397,12.2527,-62.7144)"><text x="659.034px" y="96.203px" style="font-family:'ArialMT', 'Arial', sans-serif;font-size:16px;">a</text></g><g transform="matrix(0.992356,0.123408,-0.123408,0.992356,17.083,-81.6824)"><text x="667.901px" y="97.057px" style="font-family:'ArialMT', 'Arial', sans-serif;font-size:16px;">n</text></g><g transform="matrix(0.988602,0.150553,-0.150553,0.988602,22.4911,-100.763)"><text x="676.719px" y="98.157px" style="font-family:'ArialMT', 'Arial', sans-serif;font-size:16px;">c</text></g><g transform="matrix(0.984335,0.176309,-0.176309,0.984335,28.2419,-119.151)"><text x="684.637px" y="99.354px" style="font-family:'ArialMT', 'Arial', sans-serif;font-size:16px;">e</text></g><g><g transform="matrix(0.992939,-0.11863,0.11863,0.992939,-19.5611,72.5755)"><text x="599.84px" y="200.597px" style="font-family:'ArialMT', 'Arial', sans-serif;font-size:16.103px;">M</text></g><g transform="matrix(0.99734,-0.072896,0.072896,0.99734,-12.8792,45.226)"><text x="613.154px" y="199.058px" style="font-family:'ArialMT', 'Arial', sans-serif;font-size:16.103px;">o</text></g><g transform="matrix(0.999323,-0.036804,0.036804,0.999323,-6.88087,23.0299)"><text x="622.093px" y="198.412px" style="font-family:'ArialMT', 'Arial', sans-serif;font-size:16.103px;">y</text></g><g transform="matrix(1,-0.00083,0.00083,1,-0.164211,0.523068)"><text x="630.121px" y="198.106px" style="font-family:'ArialMT', 'Arial', sans-serif;font-size:16.103px;">e</text></g><g transform="matrix(0.999255,0.038603,-0.038603,0.999255,8.12361,-24.5233)"><text x="639.094px" y="198.1px" style="font-family:'ArialMT', 'Arial', sans-serif;font-size:16.103px;">n</text></g><g transform="matrix(0.996898,0.078699,-0.078699,0.996898,17.6273,-50.3835)"><text x="648.026px" y="198.445px" style="font-family:'ArialMT', 'Arial', sans-serif;font-size:16.103px;">n</text></g><g transform="matrix(0.992808,0.11972,-0.11972,0.992808,28.5677,-77.2208)"><text x="656.976px" y="199.152px" style="font-family:'ArialMT', 'Arial', sans-serif;font-size:16.103px;">e</text></g></g><g><g transform="matrix(0.984443,-0.175704,0.175704,0.984443,-40.413,110.802)"><text x="605.507px" y="283.618px" style="font-family:'ArialMT', 'Arial', sans-serif;font-size:16.103px;">F</text></g><g transform="matrix(0.996019,-0.089138,0.089138,0.996019,-22.6787,55.9593)"><text x="615.194px" y="281.895px" style="font-family:'ArialMT', 'Arial', sans-serif;font-size:16.103px;">a</text></g><g transform="matrix(0.999659,-0.026131,0.026131,0.999659,-7.13447,16.4049)"><text x="624.119px" y="281.183px" style="font-family:'ArialMT', 'Arial', sans-serif;font-size:16.103px;">i</text></g><g transform="matrix(0.999166,0.040834,-0.040834,0.999166,11.9976,-25.3972)"><text x="627.702px" y="280.992px" style="font-family:'ArialMT', 'Arial', sans-serif;font-size:16.103px;">b</text></g><g transform="matrix(0.994499,0.104744,-0.104744,0.994499,32.9811,-65.1377)"><text x="636.656px" y="281.439px" style="font-family:'ArialMT', 'Arial', sans-serif;font-size:16.103px;">l</text></g><g transform="matrix(0.98508,0.172099,-0.172099,0.98508,58.0363,-105.976)"><text x="640.208px" y="281.723px" style="font-family:'ArialMT', 'Arial', sans-serif;font-size:16.103px;">e</text></g></g><text x="308.203px" y="704.577px" style="font-family:'ArialMT', 'Arial', sans-serif;font-size:24px;">Densité de</text><text x="313.523px" y="729.362px" style="font-family:'ArialMT', 'Arial', sans-serif;font-size:24px;">connexion</text><text x="439.761px" y="729.164px" style="font-family:'Arial-BoldMT', 'Arial', sans-serif;font-weight:700;font-size:32px;">10</text><text x="475.355px" y="729.164px" style="font-family:'Arial-BoldMT', 'Arial', sans-serif;font-weight:700;font-size:32px;">⁶</text><text x="439.761px" y="753.949px" style="font-family:'ArialMT', 'Arial', sans-serif;font-size:24px;">objets</text><text x="503.804px" y="753.949px" style="font-family:'ArialMT', 'Arial', sans-serif;font-size:24px;">/km</text><path d="M425,687.304l11.203,0l0,71.696l-11.203,0l0,-71.696Z" style="fill:#a50b09;"/><text x="45.727px" y="537.577px" style="font-family:'ArialMT', 'Arial', sans-serif;font-size:24px;">Eﬃcacité énergétique</text><text x="169.195px" y="562.362px" style="font-family:'ArialMT', 'Arial', sans-serif;font-size:24px;">du réseau</text><text x="292.761px" y="562.164px" style="font-family:'Arial-BoldMT', 'Arial', sans-serif;font-weight:700;font-size:32px;">100</text><text x="292.761px" y="586.949px" style="font-family:'ArialMT', 'Arial', sans-serif;font-size:24px;">fois</text><rect x="278" y="556.152" width="11.203" height="35.848" style="fill:#a50b09;"/><path d="M278,520.304l11.203,0l0,35.848l-11.203,0l0,-24.505l0,-11.343Z" style="fill:#3891af;"/><text x="37.399px" y="242.577px" style="font-family:'ArialMT', 'Arial', sans-serif;font-size:24px;">Capacité de traﬁc</text><text x="130.762px" y="267.362px" style="font-family:'ArialMT', 'Arial', sans-serif;font-size:24px;">par zone</text><text x="240.98px" y="267.164px" style="font-family:'Arial-BoldMT', 'Arial', sans-serif;font-weight:700;font-size:32px;">10</text><text x="240.98px" y="291.949px" style="font-family:'ArialMT', 'Arial', sans-serif;font-size:24px;">Mbits/km²</text><rect x="226.22" y="225.304" width="11.203" height="71.696" style="fill:#3891af;"/><text x="248.89px" y="51.159px" style="font-family:'ArialMT', 'Arial', sans-serif;font-size:24px;">Débit maximal</text><text x="425.294px" y="74.746px" style="font-family:'Arial-BoldMT', 'Arial', sans-serif;font-weight:700;font-size:32px;">20</text><text x="425.294px" y="99.531px" style="font-family:'ArialMT', 'Arial', sans-serif;font-size:24px;">Gbits/s</text><rect x="410.533" y="32.885" width="11.203" height="71.696" style="fill:#3891af;"/><text x="855.124px" y="51.159px" style="font-family:'ArialMT', 'Arial', sans-serif;font-size:24px;">Débit perçu</text><text x="855.124px" y="75.944px" style="font-family:'ArialMT', 'Arial', sans-serif;font-size:24px;">par l&apos;utilisateur</text><text x="774.766px" y="80.299px" style="font-family:'Arial-BoldMT', 'Arial', sans-serif;font-weight:700;font-size:32px;">100</text><text x="752.149px" y="105.084px" style="font-family:'ArialMT', 'Arial', sans-serif;font-size:24px;">Mbits/s</text><path d="M836.712,32.885l11.203,0l0,71.696l-11.203,0l0,-71.696Z" style="fill:#3891af;"/><text x="993.291px" y="242.577px" style="font-family:'ArialMT', 'Arial', sans-serif;font-size:24px;">Eﬃcacité</text><text x="993.291px" y="267.362px" style="font-family:'ArialMT', 'Arial', sans-serif;font-size:24px;">spectrale</text><text x="930.73px" y="271.718px" style="font-family:'Arial-BoldMT', 'Arial', sans-serif;font-weight:700;font-size:32px;">10</text><text x="928.976px" y="296.503px" style="font-family:'ArialMT', 'Arial', sans-serif;font-size:24px;">fois</text><path d="M974.88,224.304l11.203,0l0,71.696l-11.203,0l0,-71.696Z" style="fill:#3891af;"/><text x="993.291px" y="493.577px" style="font-family:'ArialMT', 'Arial', sans-serif;font-size:24px;">Mobilité</text><text x="912.933px" y="522.718px" style="font-family:'Arial-BoldMT', 'Arial', sans-serif;font-weight:700;font-size:32px;">500</text><text x="914.316px" y="547.503px" style="font-family:'ArialMT', 'Arial', sans-serif;font-size:24px;">km/h</text><rect x="974.88" y="511.152" width="11.203" height="35.848" style="fill:#ad6700;"/><path d="M974.88,475.304l11.203,0l0,35.848l-11.203,0l0,-35.848Z" style="fill:#3891af;"/><text x="812.291px" y="705.577px" style="font-family:'ArialMT', 'Arial', sans-serif;font-size:24px;">Latence</text><text x="767.527px" y="734.718px" style="font-family:'Arial-BoldMT', 'Arial', sans-serif;font-weight:700;font-size:32px;">1</text><text x="753.332px" y="759.503px" style="font-family:'ArialMT', 'Arial', sans-serif;font-size:24px;">ms</text><rect x="793.88" y="687.304" width="11.203" height="71.696" style="fill:#ad6700;"/><text x="29.418px" y="146.18px" style="font-family:'ArialMT', 'Arial', sans-serif;font-size:24px;fill:#3891af;">Enhanced Mobile</text><text x="97.445px" y="170.965px" style="font-family:'ArialMT', 'Arial', sans-serif;font-size:24px;fill:#3891af;">Broadband</text><text x="64.761px" y="651.057px" style="font-family:'ArialMT', 'Arial', sans-serif;font-size:24px;fill:#a50b09;">Massive Machine</text><g><text x="12.73px" y="675.842px" style="font-family:'ArialMT', 'Arial', sans-serif;font-size:24px;fill:#a50b09;">T</text><text x="26.065px" y="675.841px" style="font-family:'ArialMT', 'Arial', sans-serif;font-size:24px;fill:#a50b09;">ype Communications</text></g><path d="M518.503,573.587l0.502,0.3l0.35,0.47l0.143,0.568l-0.085,0.58l-0.3,0.502l-0.47,0.35l-173.732,82.53l-83.911,0l-0.574,-0.114l-0.487,-0.326l-0.325,-0.486l-0.114,-0.574l0.114,-0.574l0.325,-0.487l0.487,-0.325l0.574,-0.114l83.235,0l173.69,-82.383l0.58,0.085l-0.002,-0.002Z" style="fill:#a50b09;fill-opacity:0.7;"/><path d="M467.595,215.057l0.312,0.182l0.26,0.252l0.19,0.307l0.113,0.343l0.027,0.36l-0.06,0.357l-0.144,0.332l-0.218,0.288l-0.282,0.227l-0.327,0.153l-0.355,0.07l-0.36,-0.017l-0.347,-0.102l-154.704,-66.843l-84.7,0l-0.36,-0.044l-0.338,-0.128l-0.298,-0.205l-0.24,-0.27l-0.17,-0.32l-0.086,-0.35l0,-0.362l0.086,-0.35l0.17,-0.32l0.24,-0.27l0.298,-0.205l0.338,-0.13l0.36,-0.043l85.3,0l155.285,67.09l0.01,-0.002Z" style="fill:#3891af;fill-opacity:0.7;"/></svg>