<?xml version="1.0" encoding="UTF-8" standalone="no"?><!DOCTYPE svg PUBLIC "-//W3C//DTD SVG 1.1//EN" "http://www.w3.org/Graphics/SVG/1.1/DTD/svg11.dtd"><svg width="100%" height="100%" viewBox="0 0 856 351" version="1.1" xmlns="http://www.w3.org/2000/svg" xmlns:xlink="http://www.w3.org/1999/xlink" xml:space="preserve" xmlns:serif="http://www.serif.com/" style="fill-rule:evenodd;clip-rule:evenodd;stroke-linecap:round;stroke-linejoin:round;stroke-miterlimit:1.5;"><rect id="Structure" x="0" y="0" width="856" height="351" style="fill:none;"/><path d="M546.554,96.187c-0,-6.568 -5.332,-11.9 -11.9,-11.9l-496.2,-0c-6.568,-0 -11.9,5.332 -11.9,11.9l-0,214.2c-0,6.567 5.332,11.9 11.9,11.9l496.2,-0c6.568,-0 11.9,-5.333 11.9,-11.9l-0,-214.2Z" style="fill:#ffb74d;fill-opacity:0.2;"/><g><g><g><rect x="54.816" y="194.168" width="68" height="68" style="fill:#c2e1eb;stroke:#3891af;stroke-width:2px;"/><path d="M122.816,262.168l29.43,-29.43l0,-68l-29.228,29.228l-0.202,68.202Z" style="fill:#c2e1eb;stroke:#3891af;stroke-width:2px;"/><path d="M54.816,194.168l29.43,-29.43l68,-0l-29.228,29.228l-68.202,0.202Z" style="fill:#c2e1eb;stroke:#3891af;stroke-width:2px;"/></g><text x="53.498px" y="290.091px" style="font-family:'ArialMT', 'Arial', sans-serif;font-size:18px;fill:#3891af;">Bloc 01</text><text x="53.498px" y="311.091px" style="font-family:'ArialMT', 'Arial', sans-serif;font-size:16px;fill:#3891af;">#4b7...</text></g><g><g><rect x="177.216" y="194.168" width="68" height="68" style="fill:#c2e1eb;stroke:#3891af;stroke-width:2px;"/><path d="M245.216,262.168l29.43,-29.43l0,-68l-29.228,29.228l-0.202,68.202Z" style="fill:#c2e1eb;stroke:#3891af;stroke-width:2px;"/><path d="M177.216,194.168l29.43,-29.43l68,-0l-29.228,29.228l-68.202,0.202Z" style="fill:#c2e1eb;stroke:#3891af;stroke-width:2px;"/></g><text x="172.912px" y="309.589px" style="font-family:'ArialMT', 'Arial', sans-serif;font-size:16px;fill:#3891af;">#19c...</text><text x="175.898px" y="290.091px" style="font-family:'ArialMT', 'Arial', sans-serif;font-size:18px;fill:#3891af;">Bloc 02</text></g><g><g><rect x="299.616" y="194.168" width="68" height="68" style="fill:#c2e1eb;stroke:#3891af;stroke-width:2px;"/><path d="M367.616,262.168l29.43,-29.43l0,-68l-29.228,29.228l-0.202,68.202Z" style="fill:#c2e1eb;stroke:#3891af;stroke-width:2px;"/><path d="M299.616,194.168l29.43,-29.43l68,-0l-29.228,29.228l-68.202,0.202Z" style="fill:#c2e1eb;stroke:#3891af;stroke-width:2px;"/></g><text x="295.912px" y="309.589px" style="font-family:'ArialMT', 'Arial', sans-serif;font-size:16px;fill:#3891af;">#6cc...</text><text x="298.298px" y="290.082px" style="font-family:'ArialMT', 'Arial', sans-serif;font-size:18px;fill:#3891af;">Bloc 03</text></g><g><g><rect x="422.016" y="194.168" width="68" height="68" style="fill:#c2e1eb;stroke:#3891af;stroke-width:2px;"/><path d="M490.016,262.168l29.43,-29.43l0,-68l-29.228,29.228l-0.202,68.202Z" style="fill:#c2e1eb;stroke:#3891af;stroke-width:2px;"/><path d="M422.016,194.168l29.43,-29.43l68,-0l-29.228,29.228l-68.202,0.202Z" style="fill:#c2e1eb;stroke:#3891af;stroke-width:2px;"/></g><text x="417.912px" y="309.589px" style="font-family:'ArialMT', 'Arial', sans-serif;font-size:16px;fill:#3891af;">#8f4...</text><text x="420.698px" y="290.082px" style="font-family:'ArialMT', 'Arial', sans-serif;font-size:18px;fill:#3891af;">Bloc 04</text></g><g><path d="M225.931,177.095c0,-0 -42.89,-54.248 -101.191,-0" style="fill:none;stroke:#000;stroke-width:2px;"/><path d="M131.94,179.453l-7.97,-1.575l1.189,-10.15" style="fill:none;stroke:#000;stroke-width:2px;"/></g><g><path d="M347.177,177.095c-0,-0 -42.89,-54.248 -101.191,-0" style="fill:none;stroke:#000;stroke-width:2px;"/><path d="M253.186,179.453l-7.97,-1.575l1.188,-10.15" style="fill:none;stroke:#000;stroke-width:2px;"/></g><g><path d="M470.731,177.095c0,-0 -42.89,-54.248 -101.191,-0" style="fill:none;stroke:#000;stroke-width:2px;"/><path d="M376.74,179.453l-7.97,-1.575l1.189,-10.15" style="fill:none;stroke:#000;stroke-width:2px;"/></g></g><g><g><rect x="564.016" y="108.89" width="185.253" height="185.253" style="fill:#c2e1eb;stroke:#3891af;stroke-width:2px;stroke-linejoin:miter;stroke-miterlimit:10;stroke-dasharray:20,20,0,0;stroke-dashoffset:10;"/><path d="M749.269,294.144l80.177,-80.177l0,-185.254l-79.627,79.628" style="fill:#c2e1eb;stroke:#3891af;stroke-width:2px;stroke-linejoin:miter;stroke-miterlimit:10;stroke-dasharray:20,20,0,0;stroke-dashoffset:10;"/><path d="M564.016,108.89l80.177,-80.177l185.253,0l-79.627,79.628" style="fill:#c2e1eb;stroke:#3891af;stroke-width:2px;stroke-linejoin:miter;stroke-miterlimit:10;stroke-dasharray:20,20,0,0;stroke-dashoffset:10;"/></g><text x="562.698px" y="322.067px" style="font-family:'ArialMT', 'Arial', sans-serif;font-size:18px;fill:#3891af;">Bloc 05 en construction</text><g transform="matrix(1,0,0,1,-513.307,-100.825)"><text x="1093px" y="325.138px" style="font-family:'ArialNarrow', 'Arial', sans-serif;font-stretch:condensed;font-size:18px;fill:#3891af;">T<tspan x="1101.49px 1106.4px " y="325.138px 325.138px ">ra</tspan>nsactions :</text><text x="1093px" y="343.138px" style="font-family:'ArialNarrow', 'Arial', sans-serif;font-stretch:condensed;font-size:18px;fill:#3891af;">- <tspan x="1101.77px 1110.25px 1115.16px " y="343.138px 343.138px 343.138px ">Tra</tspan>nsaction 1</text><text x="1093px" y="361.138px" style="font-family:'ArialNarrow', 'Arial', sans-serif;font-stretch:condensed;font-size:18px;fill:#3891af;">- <tspan x="1101.77px 1110.25px 1115.16px " y="361.138px 361.138px 361.138px ">Tra</tspan>nsaction 2</text><text x="1093px" y="379.138px" style="font-family:'ArialNarrow', 'Arial', sans-serif;font-stretch:condensed;font-size:18px;fill:#3891af;">- ...</text></g><text x="576.698px" y="153.623px" style="font-family:'ArialNarrow', 'Arial', sans-serif;font-stretch:condensed;font-size:18px;fill:#3891af;">Bloc précédent : #8f4...</text></g><g transform="matrix(1,0,0,1,-1028.55,-88.4878)"><text x="1073.17px" y="198.136px" style="font-family:'ArialMT', 'Arial', sans-serif;font-size:18px;fill:#ad6700;">Chaîne de blocs principale</text><text x="1073.17px" y="216.725px" style="font-family:'ArialMT', 'Arial', sans-serif;font-size:18px;fill:#ad6700;">contenant le registre ﬁgé des transactions</text></g></svg>