<?xml version="1.0" encoding="UTF-8" standalone="no"?><!DOCTYPE svg PUBLIC "-//W3C//DTD SVG 1.1//EN" "http://www.w3.org/Graphics/SVG/1.1/DTD/svg11.dtd"><svg width="100%" height="100%" viewBox="0 0 436 231" version="1.1" xmlns="http://www.w3.org/2000/svg" xmlns:xlink="http://www.w3.org/1999/xlink" xml:space="preserve" xmlns:serif="http://www.serif.com/" style="fill-rule:evenodd;clip-rule:evenodd;stroke-linejoin:round;stroke-miterlimit:10;"><g><path d="M26.94,184.811l11.293,0l0,10.581l-11.293,0l0,-10.581Zm21.41,-1.763l11.293,0l0,12.344l-11.293,0l0,-12.344Zm21.411,-1.646l11.293,0l0,13.99l-11.293,0l0,-13.99Zm21.41,-1.763l11.293,0l0,15.754l-11.293,0l0,-15.754Z" style="fill:#3891af;"/><path d="M198.224,191.513l11.293,0l0,3.88l-11.293,0l0,-3.88Zm21.411,-1.059l11.293,0l0,4.938l-11.293,0l0,-4.938Zm21.411,-1.175l11.293,0l0,6.113l-11.293,0l0,-6.113Zm21.41,0.117l11.293,0l0,5.996l-11.293,0l0,-5.996Z" style="fill:#cde5f6;"/><path d="M112.582,191.63l11.294,0l0,3.762l-11.294,0l0,-3.762Zm21.411,-0.235l11.293,0l0,3.997l-11.293,0l0,-3.997Zm21.41,-0.353l11.294,0l0,4.35l-11.294,0l0,-4.35Zm21.411,0.235l11.293,0l0,4.115l-11.293,0l0,-4.115Zm107.053,-3.644l11.293,0l0,7.759l-11.293,0l0,-7.759Zm21.41,0.705l11.294,0l0,7.054l-11.294,0l0,-7.054Zm21.411,-1.41l11.293,0l0,8.464l-11.293,0l0,-8.464Zm21.41,0.352l11.294,0l0,8.112l-11.294,0l0,-8.112Zm21.411,0.941l11.294,0l0,7.171l-11.294,0l0,-7.171Zm21.411,-0.353l11.293,0l0,7.524l-11.293,0l0,-7.524Zm21.41,-2.234l11.294,0l0,9.758l-11.294,0l0,-9.758Z" style="fill:#c2e1eb;fill-rule:nonzero;"/><path d="M112.582,176.817l11.294,0l0,14.813l-11.294,0l0,-14.813Zm21.411,-3.762l11.293,0l0,18.34l-11.293,0l0,-18.34Zm21.41,-4.585l11.294,0l0,22.572l-11.294,0l0,-22.572Zm21.411,-5.055l11.293,0l0,27.862l-11.293,0l0,-27.862Zm21.41,-5.996l11.294,0l0,34.094l-11.294,0l0,-34.094Zm21.411,-11.522l11.293,0l0,44.557l-11.293,0l0,-44.557Zm21.411,-10.345l11.293,0l0,53.727l-11.293,0l0,-53.727Zm21.41,-11.288l11.294,0l0,65.132l-11.294,0l0,-65.132Zm21.411,-5.291l11.293,0l0,68.66l-11.293,0l0,-68.66Zm21.41,-10.933l11.294,0l0,80.298l-11.294,0l0,-80.298Zm21.411,-7.054l11.293,0l0,85.942l-11.293,0l0,-85.942Zm21.41,-8.818l11.294,0l0,95.112l-11.294,0l0,-95.112Zm21.411,-7.641l11.294,0l0,103.694l-11.294,0l0,-103.694Zm21.411,-11.639l11.293,0l0,114.98l-11.293,0l0,-114.98Zm21.41,-17.4l11.294,0l0,130.146l-11.294,0l0,-130.146Z" style="fill:#efa2a1;fill-rule:nonzero;"/><path d="M21.881,195.392l0,-158.949m-2.47,158.949l2.47,0m-2.47,-19.868l2.47,0m-2.47,-19.869l2.47,0m-2.47,-19.868l2.47,0m-2.47,-19.871l2.47,0m-2.47,-19.868l2.47,0m-2.47,-19.868l2.47,0m-2.47,-19.869l2.47,0m-2.47,-19.868l2.47,0m0,158.949l406.801,0m-406.801,0l0,2.704m21.411,-2.704l0,2.704m21.41,-2.704l0,2.704m21.411,-2.704l0,2.704m21.41,-2.704l0,2.704m21.411,-2.704l0,2.704m21.411,-2.704l0,2.704m21.41,-2.704l0,2.704m21.411,-2.704l0,2.704m21.41,-2.704l0,2.704m21.411,-2.704l0,2.704m21.411,-2.704l0,2.704m21.41,-2.704l0,2.704m21.411,-2.704l0,2.704m21.41,-2.704l0,2.704m21.411,-2.704l0,2.704m21.41,-2.704l0,2.704m21.411,-2.704l0,2.704m21.411,-2.704l0,2.704m21.41,-2.704l0,2.704" style="fill:none;stroke:#669;stroke-width:0.24px;"/><path d="M32.586,184.811l21.411,-1.763l21.411,-1.646l21.41,-1.763l21.411,-2.822l21.41,-3.762l21.411,-4.585l21.411,-5.055l21.41,-5.996l21.411,-11.522l21.41,-10.345l21.411,-11.288l21.41,-5.291l21.411,-10.933l21.411,-7.054l21.41,-8.818l21.411,-7.641l21.41,-11.639l21.411,-17.4" style="fill:none;stroke:#3891af;stroke-width:2.12px;stroke-linecap:round;"/><path d="M29.998,182.225l4.941,0l0,4.938l-4.941,0l0,-4.938Zm21.411,-1.646l4.941,0l0,4.938l-4.941,0l0,-4.938Zm21.411,-1.646l4.941,0l0,4.938l-4.941,0l0,-4.938Zm21.41,-1.881l4.941,0l0,4.938l-4.941,0l0,-4.938Zm21.528,-2.704l4.941,0l0,4.938l-4.941,0l0,-4.938Zm21.411,-3.88l4.941,0l0,4.938l-4.941,0l0,-4.938Zm21.41,-4.585l4.941,0l0,4.938l-4.941,0l0,-4.938Zm21.411,-4.937l4.941,0l0,4.938l-4.941,0l0,-4.938Zm21.411,-6.114l4.941,0l0,4.938l-4.941,0l0,-4.938Zm21.41,-11.521l4.941,0l0,4.938l-4.941,0l0,-4.938Zm21.411,-10.346l4.941,0l0,4.938l-4.941,0l0,-4.938Zm21.41,-11.17l4.941,0l0,4.938l-4.941,0l0,-4.938Zm21.411,-5.291l4.941,0l0,4.938l-4.941,0l0,-4.938Zm21.411,-10.933l4.941,0l0,4.938l-4.941,0l0,-4.938Zm21.41,-7.054l4.941,0l0,4.938l-4.941,0l0,-4.938Zm21.411,-8.935l4.941,0l0,4.938l-4.941,0l0,-4.938Zm21.41,-7.524l4.941,0l0,4.938l-4.941,0l0,-4.938Zm21.411,-11.757l4.941,0l0,4.938l-4.941,0l0,-4.938Zm21.411,-17.282l4.941,0l0,4.938l-4.941,0l0,-4.938Z" style="fill:#a4d2e2;"/><text x="22.14px" y="179.474px" style="font-family:'Calibri-Bold', 'Calibri', sans-serif;font-weight:700;font-size:7.407px;fill:#063b6a;">0,108</text><text x="42.539px" y="175.853px" style="font-family:'Calibri-Bold', 'Calibri', sans-serif;font-weight:700;font-size:7.407px;fill:#063b6a;">0,124</text><text x="64.985px" y="174.137px" style="font-family:'Calibri-Bold', 'Calibri', sans-serif;font-weight:700;font-size:7.407px;fill:#063b6a;">0,141</text><text x="87.454px" y="173.361px" style="font-family:'Calibri-Bold', 'Calibri', sans-serif;font-weight:700;font-size:7.43px;fill:#063b6a;">0,159</text><text x="108.769px" y="169.528px" style="font-family:'Calibri-Bold', 'Calibri', sans-serif;font-weight:700;font-size:7.407px;fill:#063b6a;">0,187</text><text x="131.12px" y="165.719px" style="font-family:'Calibri-Bold', 'Calibri', sans-serif;font-weight:700;font-size:7.407px;fill:#063b6a;">0,226</text><text x="152.531px" y="161.134px" style="font-family:'Calibri-Bold', 'Calibri', sans-serif;font-weight:700;font-size:7.407px;fill:#063b6a;">0,272</text><text x="173.941px" y="156.173px" style="font-family:'Calibri-Bold', 'Calibri', sans-serif;font-weight:700;font-size:7.407px;fill:#063b6a;">0,322</text><text x="193.45px" y="149.048px" style="font-family:'Calibri-Bold', 'Calibri', sans-serif;font-weight:700;font-size:7.407px;fill:#063b6a;">0,383</text><text x="214.831px" y="138.397px" style="font-family:'Calibri-Bold', 'Calibri', sans-serif;font-weight:700;font-size:7.43px;fill:#063b6a;">0,499</text><text x="236.291px" y="128.055px" style="font-family:'Calibri-Bold', 'Calibri', sans-serif;font-weight:700;font-size:7.407px;fill:#063b6a;">0,603</text><text x="259.633px" y="115.848px" style="font-family:'Calibri-Bold', 'Calibri', sans-serif;font-weight:700;font-size:7.407px;fill:#063b6a;">0,716</text><text x="280.083px" y="111.635px" style="font-family:'Calibri-Bold', 'Calibri', sans-serif;font-weight:700;font-size:7.407px;fill:#063b6a;">0,769</text><text x="299.582px" y="101.623px" style="font-family:'Calibri-Bold', 'Calibri', sans-serif;font-weight:700;font-size:7.407px;fill:#063b6a;">0,879</text><text x="320.002px" y="93.609px" style="font-family:'Calibri-Bold', 'Calibri', sans-serif;font-weight:700;font-size:7.407px;fill:#063b6a;">0,950</text><text x="342.55px" y="84.811px" style="font-family:'Calibri-Bold', 'Calibri', sans-serif;font-weight:700;font-size:7.407px;fill:#063b6a;">1,039</text><text x="361.813px" y="75.386px" style="font-family:'Calibri-Bold', 'Calibri', sans-serif;font-weight:700;font-size:7.407px;fill:#063b6a;">1,116</text><text x="383.322px" y="64.942px" style="font-family:'Calibri-Bold', 'Calibri', sans-serif;font-weight:700;font-size:7.407px;fill:#063b6a;">1,233</text><text x="408.027px" y="48.131px" style="font-family:'Calibri-Bold', 'Calibri', sans-serif;font-weight:700;font-size:7.407px;fill:#063b6a;">1,408</text><text x="4.635px" y="197.72px" style="font-family:'Calibri', sans-serif;font-size:7.877px;fill:#063b6a;">0,0</text><text x="4.635px" y="177.828px" style="font-family:'Calibri', sans-serif;font-size:7.877px;fill:#063b6a;">0,2</text><text x="4.635px" y="157.936px" style="font-family:'Calibri', sans-serif;font-size:7.877px;fill:#063b6a;">0,4</text><text x="4.635px" y="138.044px" style="font-family:'Calibri', sans-serif;font-size:7.877px;fill:#063b6a;">0,6</text><text x="4.635px" y="118.15px" style="font-family:'Calibri', sans-serif;font-size:7.877px;fill:#063b6a;">0,8</text><text x="4.635px" y="98.262px" style="font-family:'Calibri', sans-serif;font-size:7.877px;fill:#063b6a;">1,0</text><text x="4.635px" y="78.364px" style="font-family:'Calibri', sans-serif;font-size:7.877px;fill:#063b6a;">1,2</text><text x="4.635px" y="58.476px" style="font-family:'Calibri', sans-serif;font-size:7.877px;fill:#063b6a;">1,4</text><text x="4.635px" y="38.588px" style="font-family:'Calibri', sans-serif;font-size:7.877px;fill:#063b6a;">1,6</text><text x="28.445px" y="208.701px" style="font-family:'Calibri', sans-serif;font-size:8.347px;fill:#063b6a;">T1</text><text x="24.093px" y="218.929px" style="font-family:'Calibri', sans-serif;font-size:8.347px;fill:#063b6a;">2015</text><text x="49.856px" y="208.701px" style="font-family:'Calibri', sans-serif;font-size:8.347px;fill:#063b6a;">T2</text><text x="45.503px" y="218.929px" style="font-family:'Calibri', sans-serif;font-size:8.347px;fill:#063b6a;">2015</text><text x="71.267px" y="208.701px" style="font-family:'Calibri', sans-serif;font-size:8.347px;fill:#063b6a;">T3</text><text x="66.914px" y="218.929px" style="font-family:'Calibri', sans-serif;font-size:8.347px;fill:#063b6a;">2015</text><text x="92.701px" y="208.701px" style="font-family:'Calibri', sans-serif;font-size:8.347px;fill:#063b6a;">T4</text><text x="88.348px" y="218.929px" style="font-family:'Calibri', sans-serif;font-size:8.347px;fill:#063b6a;">2015</text><text x="114.111px" y="208.701px" style="font-family:'Calibri', sans-serif;font-size:8.347px;fill:#063b6a;">T1</text><text x="109.759px" y="218.929px" style="font-family:'Calibri', sans-serif;font-size:8.347px;fill:#063b6a;">2016</text><text x="135.522px" y="208.701px" style="font-family:'Calibri', sans-serif;font-size:8.347px;fill:#063b6a;">T2</text><text x="131.169px" y="218.929px" style="font-family:'Calibri', sans-serif;font-size:8.347px;fill:#063b6a;">2016</text><text x="156.933px" y="208.701px" style="font-family:'Calibri', sans-serif;font-size:8.347px;fill:#063b6a;">T3</text><text x="152.58px" y="218.929px" style="font-family:'Calibri', sans-serif;font-size:8.347px;fill:#063b6a;">2016</text><text x="178.363px" y="208.701px" style="font-family:'Calibri', sans-serif;font-size:8.347px;fill:#063b6a;">T4</text><text x="174.01px" y="218.929px" style="font-family:'Calibri', sans-serif;font-size:8.347px;fill:#063b6a;">2016</text><text x="199.773px" y="208.701px" style="font-family:'Calibri', sans-serif;font-size:8.347px;fill:#063b6a;">T1</text><text x="195.421px" y="218.929px" style="font-family:'Calibri', sans-serif;font-size:8.347px;fill:#063b6a;">2017</text><text x="221.184px" y="208.701px" style="font-family:'Calibri', sans-serif;font-size:8.347px;fill:#063b6a;">T2</text><text x="216.831px" y="218.929px" style="font-family:'Calibri', sans-serif;font-size:8.347px;fill:#063b6a;">2017</text><text x="242.594px" y="208.701px" style="font-family:'Calibri', sans-serif;font-size:8.347px;fill:#063b6a;">T3</text><text x="238.242px" y="218.929px" style="font-family:'Calibri', sans-serif;font-size:8.347px;fill:#063b6a;">2017</text><text x="264.034px" y="208.701px" style="font-family:'Calibri', sans-serif;font-size:8.347px;fill:#063b6a;">T4</text><text x="259.682px" y="218.929px" style="font-family:'Calibri', sans-serif;font-size:8.347px;fill:#063b6a;">2017</text><text x="285.445px" y="208.701px" style="font-family:'Calibri', sans-serif;font-size:8.347px;fill:#063b6a;">T1</text><text x="281.092px" y="218.929px" style="font-family:'Calibri', sans-serif;font-size:8.347px;fill:#063b6a;">2018</text><text x="306.856px" y="208.701px" style="font-family:'Calibri', sans-serif;font-size:8.347px;fill:#063b6a;">T2</text><text x="302.503px" y="218.929px" style="font-family:'Calibri', sans-serif;font-size:8.347px;fill:#063b6a;">2018</text><text x="328.286px" y="208.701px" style="font-family:'Calibri', sans-serif;font-size:8.347px;fill:#063b6a;">T3</text><text x="323.914px" y="218.929px" style="font-family:'Calibri', sans-serif;font-size:8.347px;fill:#063b6a;">2018</text><text x="349.696px" y="208.701px" style="font-family:'Calibri', sans-serif;font-size:8.347px;fill:#063b6a;">T4</text><text x="345.344px" y="218.929px" style="font-family:'Calibri', sans-serif;font-size:8.347px;fill:#063b6a;">2018</text><text x="371.107px" y="208.701px" style="font-family:'Calibri', sans-serif;font-size:8.347px;fill:#063b6a;">T1</text><text x="366.754px" y="218.929px" style="font-family:'Calibri', sans-serif;font-size:8.347px;fill:#063b6a;">2019</text><text x="392.518px" y="208.701px" style="font-family:'Calibri', sans-serif;font-size:8.347px;fill:#063b6a;">T2</text><text x="388.165px" y="218.929px" style="font-family:'Calibri', sans-serif;font-size:8.347px;fill:#063b6a;">2019</text><text x="413.958px" y="208.701px" style="font-family:'Calibri', sans-serif;font-size:8.347px;fill:#063b6a;">T3</text><text x="409.605px" y="218.929px" style="font-family:'Calibri', sans-serif;font-size:8.347px;fill:#063b6a;">2019</text><g><text x="6.517px" y="29.722px" style="font-family:'Calibri-Bold', 'Calibri', sans-serif;font-weight:700;font-size:7.407px;fill:#063b6a;">Ex</text><text x="13.418px" y="29.722px" style="font-family:'Calibri-Bold', 'Calibri', sans-serif;font-weight:700;font-size:7.407px;fill:#063b6a;">aoctet</text></g><g><text x="106.729px" y="22.737px" style="font-family:'Calibri-Bold', 'Calibri', sans-serif;font-weight:700;font-size:9.758px;fill:#063b6a;">T</text><text x="111.06px" y="22.737px" style="font-family:'Calibri-Bold', 'Calibri', sans-serif;font-weight:700;font-size:9.758px;fill:#063b6a;">r<tspan x="114.314px 119.079px " y="22.737px 22.737px ">aﬁ</tspan>c de données consommées sur les réseaux mobiles</text></g><rect x="50.703" y="53.372" width="18.822" height="4.232" style="fill:#efa2a1;"/><g><g><text x="71.478px" y="57.702px" style="font-family:'Calibri', sans-serif;font-size:7.877px;fill:#063b6a;">V</text><path d="M181.56,54.044c0.077,0 0.13,0.018 0.158,0.052c0.028,0.035 0.042,0.085 0.042,0.152l0,3.358c0,0.02 -0.005,0.038 -0.015,0.052c-0.01,0.014 -0.028,0.026 -0.052,0.036c-0.024,0.011 -0.057,0.018 -0.098,0.023c-0.041,0.006 -0.091,0.008 -0.15,0.008c-0.064,0 -0.117,-0.002 -0.158,-0.008c-0.041,-0.005 -0.073,-0.012 -0.098,-0.023c-0.024,-0.01 -0.041,-0.022 -0.052,-0.036c-0.01,-0.014 -0.015,-0.032 -0.015,-0.052l0,-3.035l-1.789,0l0,1.931c0,0.238 0.036,0.419 0.106,0.54c0.071,0.122 0.197,0.183 0.379,0.183c0.059,0 0.112,-0.006 0.158,-0.017c0.046,-0.012 0.087,-0.024 0.123,-0.037c0.036,-0.013 0.066,-0.025 0.092,-0.036c0.026,-0.012 0.049,-0.018 0.069,-0.018c0.013,0 0.025,0.004 0.037,0.01c0.011,0.006 0.02,0.019 0.027,0.037c0.006,0.017 0.012,0.042 0.017,0.073c0.005,0.03 0.008,0.069 0.008,0.115c0,0.074 -0.005,0.133 -0.016,0.175c-0.01,0.042 -0.025,0.074 -0.046,0.096c-0.02,0.022 -0.051,0.042 -0.092,0.06c-0.041,0.018 -0.088,0.032 -0.14,0.044c-0.053,0.012 -0.109,0.021 -0.168,0.029c-0.059,0.008 -0.118,0.011 -0.177,0.011c-0.179,0 -0.333,-0.023 -0.461,-0.071c-0.128,-0.047 -0.234,-0.119 -0.316,-0.215c-0.082,-0.096 -0.141,-0.218 -0.178,-0.366c-0.038,-0.147 -0.056,-0.321 -0.056,-0.521l0,-2.023l-0.485,0c-0.038,0 -0.069,-0.02 -0.092,-0.061c-0.023,-0.041 -0.035,-0.108 -0.035,-0.2c0,-0.049 0.003,-0.09 0.01,-0.123c0.006,-0.034 0.015,-0.061 0.025,-0.083c0.01,-0.022 0.024,-0.037 0.04,-0.046c0.017,-0.009 0.035,-0.014 0.056,-0.014l0.481,0l0,-0.823c0,-0.018 0.004,-0.034 0.013,-0.05c0.009,-0.015 0.026,-0.029 0.05,-0.04c0.025,-0.012 0.057,-0.02 0.098,-0.025c0.041,-0.005 0.093,-0.008 0.154,-0.008c0.064,0 0.117,0.003 0.158,0.008c0.041,0.005 0.073,0.013 0.096,0.025c0.023,0.011 0.04,0.025 0.05,0.04c0.01,0.016 0.015,0.032 0.015,0.05l0,0.823l2.227,0Zm0.273,-1.069c0,0.149 -0.028,0.25 -0.084,0.304c-0.057,0.054 -0.16,0.081 -0.312,0.081c-0.148,0 -0.25,-0.027 -0.306,-0.079c-0.055,-0.053 -0.082,-0.152 -0.082,-0.298c0,-0.149 0.028,-0.25 0.084,-0.304c0.057,-0.054 0.161,-0.081 0.312,-0.081c0.149,0 0.251,0.026 0.306,0.079c0.055,0.053 0.082,0.152 0.082,0.298Z" style="fill:#063b6a;"/><text x="75.617px" y="57.702px" style="font-family:'Calibri', sans-serif;font-size:7.877px;fill:#063b6a;">olume de données des cartes ac<tspan x="182.349px " y="57.702px ">v</tspan>es en 4G</text></g></g><rect x="50.703" y="68.538" width="18.822" height="4.35" style="fill:#c2e1eb;"/><g><text x="71.478px" y="72.937px" style="font-family:'Calibri', sans-serif;font-size:7.9px;fill:#063b6a;">V</text><text x="75.629px" y="72.937px" style="font-family:'Calibri', sans-serif;font-size:7.9px;fill:#063b6a;">olume de données des cartes ne disposant pas de la 4G</text></g><path d="M50.703,85.937l18.823,0" style="fill:none;stroke:#3891af;stroke-width:2.12px;stroke-linecap:round;"/><rect x="58.114" y="83.939" width="4" height="3.997" style="fill:#a4d2e2;"/><g><text x="71.478px" y="88.152px" style="font-family:'Calibri', sans-serif;font-size:7.877px;fill:#063b6a;">V</text><text x="75.617px" y="88.152px" style="font-family:'Calibri', sans-serif;font-size:7.877px;fill:#063b6a;">olume total de données consommées</text></g></g></svg>